<svg width="233" height="315" viewBox="0 0 233 315" fill="none" xmlns="http://www.w3.org/2000/svg">
<rect width="233" height="315" rx="10" fill="white"/>
<path d="M0 10C0 4.47716 4.47715 0 10 0H223C228.523 0 233 4.47715 233 10V26.8106H0V10Z" fill="#316AFF"/>
<ellipse cx="24.1026" cy="13.4043" rx="6.24904" ry="6.25581" fill="white"/>
<ellipse cx="45.5283" cy="13.4043" rx="6.24904" ry="6.25581" fill="#F3F6FF"/>
<ellipse cx="66.9541" cy="13.4043" rx="6.24904" ry="6.25581" fill="#D1DDFC"/>
<rect x="72" y="45" width="47" height="12" rx="6" fill="#D1DDFC" fill-opacity="0.8"/>
<rect x="18" y="72" width="108" height="8" rx="4" fill="#D1DDFC" fill-opacity="0.3"/>
<rect x="18" y="88" width="85" height="8" rx="4" fill="#D1DDFC" fill-opacity="0.3"/>
<rect x="18" y="104" width="67" height="8" rx="4" fill="#D1DDFC" fill-opacity="0.3"/>
<rect x="136" y="45" width="36" height="12" rx="6" fill="#D1DDFC" fill-opacity="0.8"/>
<rect x="18" y="45" width="36" height="12" rx="6" fill="#D1DDFC" fill-opacity="0.8"/>
<g clip-path="url(#clip0_106_1400)">
<path d="M209.653 288.982H194.229V289.122H209.653V288.982Z" fill="#EBEBEB"/>
<path d="M154.339 290.289H150.285V290.429H154.339V290.289Z" fill="#EBEBEB"/>
<path d="M193.764 284.691H184.816V284.831H193.764V284.691Z" fill="#EBEBEB"/>
<path d="M44.5962 285.437H24.465V285.577H44.5962V285.437Z" fill="#EBEBEB"/>
<path d="M51.6799 285.438H48.7441V285.577H51.6799V285.438Z" fill="#EBEBEB"/>
<path d="M104.943 287.443H61.2793V287.583H104.943V287.443Z" fill="#EBEBEB"/>
<path d="M111.094 260.666H21.1093C19.6647 260.666 18.4531 259.453 18.4531 258.007V131.397C18.4531 129.951 19.6647 128.738 21.1093 128.738H111.094C112.539 128.738 113.75 129.951 113.75 131.397V258.007C113.75 259.5 112.539 260.666 111.094 260.666ZM21.1093 128.878C19.7113 128.878 18.5463 129.998 18.5463 131.444V258.053C18.5463 259.453 19.6647 260.619 21.1093 260.619H111.094C112.492 260.619 113.657 259.5 113.657 258.053V131.397C113.657 129.998 112.539 128.832 111.094 128.832H21.1093V128.878Z" fill="#EBEBEB"/>
<path d="M211.889 260.666H121.904C120.46 260.666 119.248 259.453 119.248 258.007V131.397C119.248 129.951 120.46 128.738 121.904 128.738H211.889C213.333 128.738 214.545 129.951 214.545 131.397V258.007C214.545 259.5 213.333 260.666 211.889 260.666ZM121.904 128.878C120.506 128.878 119.341 129.998 119.341 131.444V258.053C119.341 259.453 120.46 260.619 121.904 260.619H211.889C213.287 260.619 214.452 259.5 214.452 258.053V131.397C214.452 129.998 213.333 128.832 211.889 128.832H121.904V128.878Z" fill="#EBEBEB"/>
<path d="M233 281.613H0V281.473H233" fill="#EBEBEB"/>
<path d="M174.751 278.253L161.656 275.5V207.717H157.462V275.547L144.367 278.299C142.83 278.626 141.758 279.979 141.758 281.518H177.36C177.36 279.932 176.288 278.579 174.751 278.253Z" fill="#E0E0E0"/>
<path d="M166.735 209.536H159.279V167.178H166.735C173.679 167.178 179.271 172.822 179.271 179.727V196.941C179.271 203.892 173.679 209.536 166.735 209.536Z" fill="#E6E6E6"/>
<path d="M166.735 204.404H159.279V209.536H166.735C173.679 209.536 179.271 203.891 179.271 196.987V191.855C179.271 198.806 173.679 204.404 166.735 204.404Z" fill="#E0E0E0"/>
<path d="M160.166 209.536H148.935C145.068 209.536 141.945 206.411 141.945 202.539V174.175C141.945 170.303 145.068 167.178 148.935 167.178H160.166C164.034 167.178 167.156 170.303 167.156 174.175V202.539C167.109 206.411 163.987 209.536 160.166 209.536Z" fill="#F0F0F0"/>
<path d="M154.527 186.445C159.134 186.445 162.868 182.706 162.868 178.095C162.868 173.483 159.134 169.744 154.527 169.744C149.92 169.744 146.186 173.483 146.186 178.095C146.186 182.706 149.92 186.445 154.527 186.445Z" fill="#E0E0E0"/>
<path d="M154.527 206.412C159.134 206.412 162.868 202.673 162.868 198.061C162.868 193.45 159.134 189.711 154.527 189.711C149.92 189.711 146.186 193.45 146.186 198.061C146.186 202.673 149.92 206.412 154.527 206.412Z" fill="#E0E0E0"/>
<path d="M154.525 185.044C158.36 185.044 161.469 181.932 161.469 178.094C161.469 174.255 158.36 171.143 154.525 171.143C150.691 171.143 147.582 174.255 147.582 178.094C147.582 181.932 150.691 185.044 154.525 185.044Z" fill="#EBEBEB"/>
<path d="M154.526 180.893C156.071 180.893 157.322 179.64 157.322 178.094C157.322 176.548 156.071 175.295 154.526 175.295C152.982 175.295 151.73 176.548 151.73 178.094C151.73 179.64 152.982 180.893 154.526 180.893Z" fill="#E0E0E0"/>
<path d="M154.525 205.011C158.36 205.011 161.469 201.899 161.469 198.06C161.469 194.221 158.36 191.109 154.525 191.109C150.691 191.109 147.582 194.221 147.582 198.06C147.582 201.899 150.691 205.011 154.525 205.011Z" fill="#EBEBEB"/>
<path d="M154.526 200.86C156.071 200.86 157.322 199.607 157.322 198.061C157.322 196.515 156.071 195.262 154.526 195.262C152.982 195.262 151.73 196.515 151.73 198.061C151.73 199.607 152.982 200.86 154.526 200.86Z" fill="#E0E0E0"/>
<path d="M200.659 141.612H32.0607C31.3617 141.612 30.7559 141.053 30.7559 140.306C30.7559 139.606 31.3151 139 32.0607 139H200.659C201.358 139 201.964 139.56 201.964 140.306C201.918 141.053 201.358 141.612 200.659 141.612Z" fill="#E6E6E6"/>
<path d="M60.208 157.289C58.4372 159.061 55.548 159.061 53.7772 157.289L52.0996 155.609C50.3288 153.836 50.3288 150.944 52.0996 149.171C53.8704 147.399 56.7596 147.399 58.5304 149.171L60.208 150.851C61.9788 152.623 61.9788 155.469 60.208 157.289Z" fill="#E0E0E0"/>
<path d="M55.5014 155.422C54.5694 156.355 54.5228 157.848 55.3616 158.828C56.3402 159.667 57.8314 159.621 58.7634 158.688L61.606 155.842C62.538 154.909 62.5846 153.416 61.7458 152.437C60.7672 151.597 59.276 151.644 58.344 152.577L55.5014 155.422Z" fill="#F5F5F5"/>
<path d="M55.8739 149.731C55.8739 150.757 55.0351 151.644 53.9633 151.644C52.9381 151.644 52.0527 150.804 52.0527 149.731V141.287H55.8273V149.731H55.8739Z" fill="#F0F0F0"/>
<path d="M53.9627 150.758C54.5289 150.758 54.9879 150.298 54.9879 149.731C54.9879 149.165 54.5289 148.705 53.9627 148.705C53.3965 148.705 52.9375 149.165 52.9375 149.731C52.9375 150.298 53.3965 150.758 53.9627 150.758Z" fill="#E0E0E0"/>
<path d="M101.542 157.289C99.7712 159.061 96.882 159.061 95.1112 157.289L93.4336 155.609C91.6628 153.836 91.6628 150.944 93.4336 149.171C95.2044 147.399 98.0936 147.399 99.8644 149.171L101.542 150.851C103.313 152.623 103.313 155.469 101.542 157.289Z" fill="#E0E0E0"/>
<path d="M96.8354 155.422C95.9034 156.355 95.8568 157.848 96.6956 158.828C97.6742 159.667 99.1654 159.621 100.097 158.688L102.94 155.842C103.872 154.909 103.919 153.416 103.08 152.437C102.101 151.597 100.61 151.644 99.678 152.577L96.8354 155.422Z" fill="#F5F5F5"/>
<path d="M97.2079 149.731C97.2079 150.757 96.3691 151.644 95.2973 151.644C94.2721 151.644 93.3867 150.804 93.3867 149.731V141.287H97.1613V149.731H97.2079Z" fill="#F0F0F0"/>
<path d="M95.2967 150.758C95.8629 150.758 96.3219 150.298 96.3219 149.731C96.3219 149.165 95.8629 148.705 95.2967 148.705C94.7305 148.705 94.2715 149.165 94.2715 149.731C94.2715 150.298 94.7305 150.758 95.2967 150.758Z" fill="#E0E0E0"/>
<path d="M176.66 157.289C178.431 159.061 181.32 159.061 183.091 157.289L184.769 155.609C186.539 153.836 186.539 150.944 184.769 149.171C182.998 147.399 180.109 147.399 178.338 149.171L176.66 150.851C174.889 152.623 174.889 155.469 176.66 157.289Z" fill="#E0E0E0"/>
<path d="M181.321 155.422C182.253 156.355 182.299 157.848 181.461 158.828C180.482 159.667 178.991 159.621 178.059 158.688L175.216 155.842C174.284 154.909 174.238 153.416 175.076 152.437C176.055 151.597 177.546 151.644 178.478 152.577L181.321 155.422Z" fill="#F5F5F5"/>
<path d="M180.994 149.731C180.994 150.757 181.833 151.644 182.905 151.644C183.93 151.644 184.815 150.804 184.815 149.731V141.287H181.041V149.731H180.994Z" fill="#F0F0F0"/>
<path d="M182.859 150.758C183.425 150.758 183.884 150.298 183.884 149.731C183.884 149.165 183.425 148.705 182.859 148.705C182.293 148.705 181.834 149.165 181.834 149.731C181.834 150.298 182.293 150.758 182.859 150.758Z" fill="#E0E0E0"/>
<path d="M135.328 157.289C137.099 159.061 139.988 159.061 141.759 157.289L143.436 155.609C145.207 153.836 145.207 150.944 143.436 149.171C141.666 147.399 138.777 147.399 137.006 149.171L135.328 150.851C133.557 152.623 133.557 155.469 135.328 157.289Z" fill="#E0E0E0"/>
<path d="M140.034 155.422C140.966 156.355 141.012 157.848 140.174 158.828C139.195 159.667 137.704 159.621 136.772 158.688L133.929 155.842C132.997 154.909 132.951 153.416 133.789 152.437C134.768 151.597 136.259 151.644 137.191 152.577L140.034 155.422Z" fill="#F5F5F5"/>
<path d="M139.66 149.731C139.66 150.757 140.499 151.644 141.571 151.644C142.596 151.644 143.481 150.804 143.481 149.731V141.287H139.707V149.731H139.66Z" fill="#F0F0F0"/>
<path d="M141.572 150.758C142.138 150.758 142.597 150.298 142.597 149.731C142.597 149.165 142.138 148.705 141.572 148.705C141.006 148.705 140.547 149.165 140.547 149.731C140.547 150.298 141.006 150.758 141.572 150.758Z" fill="#E0E0E0"/>
<path d="M116.873 303.172C172.669 303.172 217.901 300.812 217.901 297.9C217.901 294.989 172.669 292.629 116.873 292.629C61.0759 292.629 15.8438 294.989 15.8438 297.9C15.8438 300.812 61.0759 303.172 116.873 303.172Z" fill="#F5F5F5"/>
<path opacity="0.3" d="M198.236 243.172C204.201 243.172 208.442 247.604 208.116 253.528L207.417 266.497C207.323 268.503 205.646 270.043 203.642 270.043H179.69L184.629 253.528C186.493 247.65 192.318 243.172 198.236 243.172Z" fill="white"/>
<path d="M75.5848 291.549H20.457V296.914H75.5848V291.549Z" fill="#316AFF"/>
<path opacity="0.3" d="M75.5848 291.549H20.457V296.914H75.5848V291.549Z" fill="white"/>
<path d="M160.305 291.549H70.9258V296.914H160.305V291.549Z" fill="#316AFF"/>
<path opacity="0.7" d="M160.305 291.549H70.9258V296.914H160.305V291.549Z" fill="white"/>
<path d="M40.6355 291.454C40.3559 291.454 40.1695 291.221 40.2161 290.941L49.5827 178.467H50.5147V179.4H50.4215L41.1015 290.988C41.1015 291.268 40.8685 291.454 40.6355 291.454Z" fill="#263238"/>
<path d="M82.2957 291.454C82.5753 291.454 82.7617 291.221 82.7151 290.941L73.3485 178.467H72.4165V179.4H72.5097L78.5211 251.335H48.3709L42.3129 178.467H41.3809V179.4H41.4741L50.7941 290.988C50.7941 291.268 51.0271 291.454 51.3067 291.408C51.5863 291.408 51.7727 291.174 51.7261 290.895L48.5107 252.221H78.6609L81.8763 290.988C81.7831 291.268 82.0161 291.454 82.2957 291.454Z" fill="#263238"/>
<path d="M84.4382 236.453H39.8886L34.25 168.996H78.7996L84.4382 236.453Z" fill="#316AFF"/>
<path opacity="0.8" d="M84.4382 236.453H39.8886L34.25 168.996H78.7996L84.4382 236.453Z" fill="white"/>
<path d="M78.7537 170.583H34.2041C33.3653 170.583 32.7129 169.93 32.7129 169.09C32.7129 168.251 33.3653 167.598 34.2041 167.598H78.7537C79.5925 167.598 80.2449 168.251 80.2449 169.09C80.2449 169.93 79.5925 170.583 78.7537 170.583Z" fill="#316AFF"/>
<path opacity="0.5" d="M78.7537 170.583H34.2041C33.3653 170.583 32.7129 169.93 32.7129 169.09C32.7129 168.251 33.3653 167.598 34.2041 167.598H78.7537C79.5925 167.598 80.2449 168.251 80.2449 169.09C80.2449 169.93 79.5925 170.583 78.7537 170.583Z" fill="white"/>
<path d="M60.4395 211.077L59.7871 203.193C59.7871 202.913 59.9735 202.726 60.2065 202.68C60.4861 202.68 60.6725 202.866 60.7191 203.1L61.3715 210.983C61.3715 211.263 61.1851 211.45 60.9521 211.497C60.6725 211.497 60.4861 211.31 60.4395 211.077Z" fill="#316AFF"/>
<path d="M52.984 203.333C47.2056 203.333 42.0796 198.621 41.567 192.836C41.0544 187.052 45.3416 182.34 51.1666 182.34C56.945 182.34 62.071 187.052 62.5836 192.836C63.0496 198.621 58.7624 203.333 52.984 203.333ZM51.1666 182.806C45.6212 182.806 41.5204 187.331 41.9864 192.836C42.4524 198.388 47.3454 202.866 52.8908 202.866C58.4362 202.866 62.537 198.341 62.071 192.836C61.605 187.285 56.712 182.806 51.1666 182.806Z" fill="#316AFF"/>
<path d="M67.5699 203.333C61.7915 203.333 56.6655 198.621 56.1529 192.836C55.6403 187.052 59.9275 182.34 65.7525 182.34C71.5309 182.34 76.6569 187.052 77.1695 192.836C77.6821 198.621 73.3483 203.333 67.5699 203.333ZM65.7991 182.806C60.2537 182.806 56.1529 187.331 56.6189 192.836C57.0849 198.388 61.9779 202.866 67.5233 202.866C73.0687 202.866 77.1695 198.341 76.7035 192.836C76.1909 187.285 71.2979 182.806 65.7991 182.806Z" fill="#316AFF"/>
<path d="M56.3864 193.022L60.8134 188.17C60.7202 188.03 60.627 187.89 60.5338 187.75L56.3398 192.368C56.3398 192.508 56.3398 192.695 56.3864 192.835C56.3864 192.882 56.3864 192.975 56.3864 193.022Z" fill="#316AFF"/>
<path d="M61.3737 189.244C61.2805 189.104 61.2339 188.917 61.1407 188.777L56.5273 193.862C56.5739 194.049 56.6205 194.235 56.6671 194.469L61.3737 189.244Z" fill="#316AFF"/>
<path d="M61.8378 190.41C61.7912 190.223 61.698 190.083 61.6514 189.896L56.8516 195.121C56.8982 195.308 56.9448 195.495 57.038 195.634L61.8378 190.41Z" fill="#316AFF"/>
<path d="M60.161 187.238C60.0678 187.098 59.9746 186.959 59.8814 186.865L56.433 190.644C56.3864 190.924 56.3864 191.157 56.3398 191.437L60.161 187.238Z" fill="#316AFF"/>
<path d="M59.462 186.352C59.3688 186.212 59.229 186.118 59.1358 185.979L57.0388 188.264C56.899 188.638 56.7592 189.011 56.666 189.384L59.462 186.352Z" fill="#316AFF"/>
<path d="M61.7912 197.081C61.931 196.754 62.0242 196.381 62.1174 196.008L59.1816 199.227C59.2748 199.367 59.4146 199.46 59.5078 199.6L61.7912 197.081Z" fill="#316AFF"/>
<path d="M60.6275 199.273L59.9277 200.02L59.9744 200.066C60.2076 199.833 60.4409 199.553 60.6275 199.273Z" fill="#316AFF"/>
<path d="M62.1645 191.669C62.1179 191.483 62.0713 191.296 62.0247 191.109L57.2715 196.288C57.3647 196.428 57.4113 196.614 57.5045 196.754L62.1645 191.669Z" fill="#316AFF"/>
<path d="M62.3053 194.842C62.3519 194.562 62.3519 194.329 62.3519 194.049L58.4375 198.341C58.5307 198.481 58.6239 198.621 58.7171 198.714L62.3053 194.842Z" fill="#316AFF"/>
<path d="M62.3503 193.163C62.3503 193.069 62.3503 192.976 62.3503 192.836C62.3503 192.696 62.3037 192.603 62.3037 192.463L57.8301 197.361C57.9233 197.501 58.0165 197.641 58.1097 197.781L62.3503 193.163Z" fill="#316AFF"/>
<path d="M76.0506 215.741H46.7392C45.9004 215.741 45.1548 215.041 45.0616 214.202C44.9684 213.362 45.6208 212.662 46.4596 212.662H75.771C76.6098 212.662 77.3554 213.362 77.4486 214.202C77.5418 215.088 76.8894 215.741 76.0506 215.741Z" fill="#316AFF"/>
<path d="M72.9759 221.946H52.5185C51.6797 221.946 50.9341 221.246 50.8409 220.407C50.7477 219.567 51.4001 218.867 52.2389 218.867H72.6963C73.5351 218.867 74.2807 219.567 74.3739 220.407C74.4205 221.246 73.8147 221.946 72.9759 221.946Z" fill="#316AFF"/>
<path d="M76.0506 215.741H46.7392C45.9004 215.741 45.1548 215.041 45.0616 214.202C44.9684 213.362 45.6208 212.662 46.4596 212.662H75.771C76.6098 212.662 77.3554 213.362 77.4486 214.202C77.5418 215.088 76.8894 215.741 76.0506 215.741Z" fill="#316AFF"/>
<path d="M72.9759 221.946H52.5185C51.6797 221.946 50.9341 221.246 50.8409 220.407C50.7477 219.567 51.4001 218.867 52.2389 218.867H72.6963C73.5351 218.867 74.2807 219.567 74.3739 220.407C74.4205 221.246 73.8147 221.946 72.9759 221.946Z" fill="#316AFF"/>
<path d="M109.323 287.069L112.259 286.136L111.047 279.465L108.158 280.351L109.323 287.069Z" fill="#CE7A63"/>
<path d="M112.306 285.762L109.044 286.789C108.904 286.835 108.857 286.929 108.857 287.069L109.277 289.634C109.323 289.914 109.649 290.054 109.929 289.961C111.047 289.588 111.607 289.354 113.051 288.888C113.937 288.608 117.711 287.488 118.923 287.115C120.134 286.742 119.855 285.576 119.296 285.622C116.872 285.856 113.843 286.136 112.865 285.762C112.678 285.716 112.492 285.716 112.306 285.762Z" fill="#263238"/>
<path opacity="0.2" d="M108.158 280.398L111.047 279.465L111.653 282.917L108.764 283.803L108.158 280.398Z" fill="black"/>
<path d="M107.179 212.707C107.179 212.707 109.09 236.965 109.556 245.409C110.069 254.692 112.818 281.796 112.818 281.796L107.412 283.243C107.412 283.243 102.193 256.978 100.842 247.975C99.3971 238.178 96.5545 212.707 96.5545 212.707H107.179Z" fill="#263238"/>
<path d="M107.227 283.337L113.005 281.798L113.098 279.512L106.574 281.704L107.227 283.337Z" fill="#263238"/>
<path d="M113.471 285.949C113.192 286.042 112.912 286.089 112.679 286.089C112.633 286.089 112.633 286.089 112.633 286.042C112.633 285.996 112.633 285.996 112.633 285.949C112.726 285.856 113.425 285.062 113.798 285.062C113.891 285.062 113.937 285.109 113.984 285.202C114.077 285.342 114.077 285.482 113.984 285.576C113.891 285.762 113.704 285.856 113.471 285.949ZM112.819 285.902C113.378 285.856 113.751 285.716 113.844 285.529C113.891 285.436 113.891 285.389 113.844 285.296C113.844 285.249 113.798 285.249 113.751 285.249C113.565 285.202 113.099 285.622 112.819 285.902Z" fill="#316AFF"/>
<path d="M112.68 286.089C112.633 286.089 112.587 286.089 112.587 286.042C112.587 285.995 112.307 285.202 112.54 284.829C112.587 284.736 112.68 284.689 112.82 284.642C112.96 284.596 113.053 284.642 113.1 284.782C113.24 285.062 112.96 285.809 112.68 286.089C112.727 286.042 112.68 286.042 112.68 286.089ZM112.82 284.782C112.773 284.782 112.727 284.829 112.68 284.876C112.54 285.109 112.633 285.575 112.68 285.855C112.866 285.575 113.053 285.016 112.96 284.829C112.96 284.782 112.96 284.782 112.82 284.782Z" fill="#316AFF"/>
<path opacity="0.6" d="M100.47 220.218C99.3519 215.879 98.2335 216.906 97.4413 218.818C97.5345 220.171 97.6276 221.571 97.7208 222.97C98.3732 228.662 99.2121 235.706 99.9577 241.397C101.309 235.753 102.055 226.282 100.47 220.218Z" fill="black"/>
<path d="M87.3748 288.375H90.3572L91.3358 281.471H88.4L87.3748 288.375Z" fill="#CE7A63"/>
<path d="M90.543 288.004H87.1878C87.048 288.004 86.9548 288.097 86.9548 288.191L86.582 290.85C86.5354 291.129 86.7684 291.363 87.048 291.363C88.213 291.363 88.7722 291.269 90.2634 291.269C91.1488 291.269 95.0166 291.363 96.2748 291.363C97.4864 291.363 97.5796 290.103 97.067 290.01C94.737 289.497 91.8478 288.797 91.0556 288.144C90.9158 288.097 90.7294 288.004 90.543 288.004Z" fill="#263238"/>
<path opacity="0.2" d="M88.3992 281.473H91.335L90.8224 285.018H87.8866L88.3992 281.473Z" fill="black"/>
<path d="M101.821 212.568C101.821 212.568 100.097 235.334 98.8851 243.871C97.5337 253.201 92.1747 284.177 92.1747 284.177H86.7225C86.7225 284.177 89.5185 253.994 89.9845 244.711C90.4971 234.681 91.5223 212.568 91.5223 212.568H101.821Z" fill="#263238"/>
<path d="M86.5361 284.177H92.4077L92.9203 282.078L86.3963 282.405L86.5361 284.177Z" fill="#263238"/>
<path d="M91.5689 288.515C91.2893 288.515 91.0097 288.469 90.7767 288.422C90.7301 288.422 90.7301 288.375 90.7301 288.375C90.7301 288.329 90.7301 288.329 90.7767 288.282C90.8699 288.235 91.7553 287.629 92.1281 287.769C92.2213 287.816 92.2679 287.862 92.2679 287.956C92.2679 288.096 92.2679 288.235 92.1281 288.329C91.9883 288.515 91.8019 288.515 91.5689 288.515ZM90.9631 288.329C91.4757 288.422 91.8951 288.422 92.0349 288.282C92.0815 288.235 92.1281 288.142 92.1281 288.049C92.1281 288.002 92.0815 287.956 92.0815 287.956C91.8485 287.862 91.3359 288.096 90.9631 288.329Z" fill="#316AFF"/>
<path d="M90.777 288.423C90.7303 288.423 90.7303 288.377 90.7303 288.377C90.7303 288.33 90.7303 287.49 91.0569 287.21C91.1502 287.117 91.2435 287.117 91.3368 287.117C91.4767 287.117 91.57 287.21 91.57 287.35C91.6633 287.63 91.1502 288.237 90.777 288.423C90.8236 288.423 90.8236 288.423 90.777 288.423ZM91.2901 287.21C91.2435 287.21 91.1968 287.21 91.1502 287.257C90.9636 287.444 90.8703 287.91 90.8703 288.19C91.1502 287.957 91.4767 287.49 91.4767 287.304C91.4767 287.304 91.4301 287.257 91.2901 287.21C91.3368 287.21 91.3368 287.21 91.2901 287.21Z" fill="#316AFF"/>
<path d="M108.391 188.311C109.137 189.99 109.929 191.763 110.814 193.395C111.234 194.235 111.7 195.028 112.212 195.728C112.678 196.474 113.237 197.127 113.703 197.594C113.843 197.687 113.936 197.781 114.03 197.827C114.123 197.874 114.169 197.921 114.169 197.921C114.169 197.921 114.123 197.967 114.169 197.967C114.216 197.967 114.263 197.967 114.402 197.921C114.635 197.827 114.915 197.641 115.241 197.407C115.521 197.174 115.847 196.894 116.173 196.568C117.385 195.308 118.503 193.722 119.575 192.183L121.439 193.069C120.787 195.028 119.948 196.894 118.69 198.667C118.363 199.133 118.037 199.553 117.618 199.973C117.198 200.393 116.732 200.813 116.08 201.186C115.754 201.373 115.381 201.513 114.915 201.653C114.496 201.746 113.936 201.793 113.424 201.653C112.445 201.466 111.839 201.046 111.327 200.626C110.302 199.833 109.603 198.947 108.95 198.061C108.298 197.174 107.739 196.288 107.226 195.401C106.713 194.515 106.247 193.582 105.781 192.696C105.362 191.763 104.943 190.876 104.523 189.897L108.391 188.311Z" fill="#CE7A63"/>
<path d="M113.331 195.448L108.624 198.947C108.624 198.947 108.438 198.76 108.158 198.387C107.925 198.154 107.646 197.78 107.319 197.407C105.502 195.168 102.799 191.109 102.799 189.103C102.753 186.118 105.828 185.698 109.323 188.73C110.814 190.036 111.607 192.229 112.352 193.582C112.585 194.048 112.818 194.422 112.958 194.702C113.191 195.215 113.331 195.448 113.331 195.448Z" fill="#316AFF"/>
<path opacity="0.6" d="M113.331 195.448L108.624 198.947C108.624 198.947 108.438 198.76 108.158 198.387C107.925 198.154 107.646 197.78 107.319 197.407C105.502 195.168 102.799 191.109 102.799 189.103C102.753 186.118 105.828 185.698 109.323 188.73C110.814 190.036 111.607 192.229 112.352 193.582C112.585 194.048 112.818 194.422 112.958 194.702C113.191 195.215 113.331 195.448 113.331 195.448Z" fill="white"/>
<path opacity="0.3" d="M102.799 189.477C103.871 188.777 104.616 190.596 106.76 192.136C107.692 192.835 109.742 197.314 109.603 198.294L108.717 198.993C108.624 198.993 102.752 192.462 102.799 189.477Z" fill="black"/>
<path d="M119.25 192.277L120.275 189.012L122.931 190.971C122.931 190.971 121.487 193.91 120.508 193.63L119.25 192.277Z" fill="#CE7A63"/>
<path d="M113.331 194.982L108.205 198.854L108.857 199.508L113.75 195.915L113.331 194.982Z" fill="#316AFF"/>
<path opacity="0.8" d="M113.331 194.982L108.205 198.854L108.857 199.508L113.75 195.915L113.331 194.982Z" fill="white"/>
<path d="M107.459 212.71H91.5221C91.4289 211.264 91.7551 206.646 91.4755 200.768C91.2891 196.803 90.8697 192.277 89.8911 187.752C89.7979 187.426 89.7513 187.099 89.6581 186.773C89.6581 186.773 90.4503 186.586 91.6153 186.446C92.5939 186.306 93.7589 186.166 94.9705 186.12C97.0209 186.026 99.9567 185.98 101.727 186.12C102.753 186.213 103.778 186.399 104.617 186.539C105.642 186.726 106.248 186.913 106.248 186.913C106.248 186.913 110.209 195.963 107.459 212.71Z" fill="#316AFF"/>
<path opacity="0.6" d="M107.459 212.71H91.5221C91.4289 211.264 91.7551 206.646 91.4755 200.768C91.2891 196.803 90.8697 192.277 89.8911 187.752C89.7979 187.426 89.7513 187.099 89.6581 186.773C89.6581 186.773 90.4503 186.586 91.6153 186.446C92.5939 186.306 93.7589 186.166 94.9705 186.12C97.0209 186.026 99.9567 185.98 101.727 186.12C102.753 186.213 103.778 186.399 104.617 186.539C105.642 186.726 106.248 186.913 106.248 186.913C106.248 186.913 110.209 195.963 107.459 212.71Z" fill="white"/>
<path d="M123.071 187.75L124.609 189.569L122.931 190.922L120.275 189.01L123.071 187.75Z" fill="#CE7A63"/>
<path d="M92.0825 189.897C91.9427 190.924 91.7097 191.857 91.5233 192.79C91.2903 193.723 91.0573 194.702 90.7311 195.635C90.4515 196.568 90.0787 197.548 89.7059 198.481C89.2865 199.414 88.8205 200.394 88.1215 201.373C87.7487 201.84 87.3293 202.353 86.6303 202.819C86.3041 203.053 85.8381 203.239 85.3721 203.379C84.8595 203.473 84.3003 203.473 83.8343 203.379C82.8557 203.099 82.2499 202.586 81.7839 202.12C81.3179 201.653 81.0383 201.14 80.7587 200.674C80.2461 199.694 79.8733 198.761 79.5937 197.781C79.4539 197.315 79.3141 196.802 79.2209 196.335C79.1277 195.869 79.0345 195.355 78.9413 194.842L80.9451 194.282C81.6907 195.915 82.5761 197.595 83.5547 198.854C83.7877 199.181 84.0673 199.414 84.2537 199.601C84.4867 199.787 84.6731 199.834 84.6265 199.787C84.5799 199.787 84.5333 199.741 84.4867 199.741C84.4401 199.741 84.4401 199.741 84.4867 199.694C84.5799 199.601 84.7663 199.414 84.9527 199.134C85.3255 198.574 85.6517 197.828 85.9779 197.035C86.2575 196.242 86.5371 195.402 86.7701 194.516C87.2361 192.79 87.6555 190.97 87.9817 189.244L92.0825 189.897Z" fill="#CE7A63"/>
<path d="M81.1305 194.422L80.1053 191.156L77.4491 193.116C77.4491 193.116 78.8937 196.055 79.8723 195.775L81.1305 194.422Z" fill="#CE7A63"/>
<path d="M77.3094 189.898L75.8182 191.718L77.4492 193.117L80.1054 191.158L77.3094 189.898Z" fill="#CE7A63"/>
<path opacity="0.3" d="M91.5217 200.767C91.3353 196.801 90.9159 192.276 89.9373 187.751C91.0091 187.658 92.8265 187.751 93.1061 189.477C93.4323 191.343 93.0129 195.682 91.5217 200.767Z" fill="black"/>
<path d="M93.5257 191.904C92.9199 193.863 91.9414 196.195 91.2424 197.875C91.056 198.295 90.8695 198.715 90.7297 198.994C90.4967 199.554 90.3104 199.881 90.3104 199.881L84.3456 196.849C84.3456 196.849 84.3921 196.615 84.5319 196.195C84.6251 195.869 84.7183 195.449 84.9047 194.983C85.7901 192.184 87.6075 187.145 89.5647 186.772C92.4073 186.259 94.551 188.358 93.5257 191.904Z" fill="#316AFF"/>
<path opacity="0.6" d="M93.5257 191.904C92.9199 193.863 91.9414 196.195 91.2424 197.875C91.056 198.295 90.8695 198.715 90.7297 198.994C90.4967 199.554 90.3104 199.881 90.3104 199.881L84.3456 196.849C84.3456 196.849 84.3921 196.615 84.5319 196.195C84.6251 195.869 84.7183 195.449 84.9047 194.983C85.7901 192.184 87.6075 187.145 89.5647 186.772C92.4073 186.259 94.551 188.358 93.5257 191.904Z" fill="white"/>
<path d="M98.9316 188.357C95.0172 188.264 94.4114 186.304 94.3648 186.258L94.3182 186.164C94.5512 186.164 94.7842 186.118 94.9706 186.118C97.021 186.024 99.9568 185.978 101.728 186.118C101.867 186.118 101.961 186.164 102.1 186.164C102.38 186.444 102.66 186.864 102.52 187.284C102.333 187.937 101.448 188.17 100.609 188.264L98.9316 188.357Z" fill="white"/>
<path d="M84.4396 195.775L90.9636 199.088L90.218 200.021L84.16 196.848L84.4396 195.775Z" fill="#316AFF"/>
<path opacity="0.8" d="M84.4396 195.775L90.9636 199.088L90.218 200.021L84.16 196.848L84.4396 195.775Z" fill="white"/>
<path d="M98.605 188.637L101.261 188.357L100.655 190.13C100.655 190.13 102.473 199.6 102.799 202.772C103.032 204.685 103.218 210.423 103.218 210.423L101.867 211.963L99.8166 210.983C99.8166 210.983 99.8632 204.498 99.8632 202.353C99.8632 199.32 99.7234 190.13 99.7234 190.13L98.5584 189.011L98.605 188.637Z" fill="#263238"/>
<path d="M97.9531 190.409L99.8637 188.637L102.24 190.27C102.24 190.27 104.71 187.937 102.893 186.258C102.52 186.211 102.194 186.164 101.821 186.118C100.05 185.978 97.0677 186.024 95.0639 186.118C94.5979 186.118 94.1319 186.164 93.6659 186.211C93.7591 186.864 94.4581 189.057 97.9531 190.409Z" fill="#316AFF"/>
<path opacity="0.8" d="M97.9531 190.409L99.8637 188.637L102.24 190.27C102.24 190.27 104.71 187.937 102.893 186.258C102.52 186.211 102.194 186.164 101.821 186.118C100.05 185.978 97.0677 186.024 95.0639 186.118C94.5979 186.118 94.1319 186.164 93.6659 186.211C93.7591 186.864 94.4581 189.057 97.9531 190.409Z" fill="white"/>
<path d="M99.0253 187.937C95.2507 187.89 94.7381 186.118 94.7381 186.118C96.2293 184.672 95.6235 180.706 95.1575 178.514L96.9749 180.006L99.4447 182.059C99.3515 182.386 99.3049 182.712 99.3049 183.039C99.1651 184.392 99.5379 185.605 101.495 186.071C101.495 186.071 103.825 187.611 100.377 187.89L99.0253 187.937Z" fill="#CE7A63"/>
<path opacity="0.2" d="M99.4443 182.06C99.3511 182.387 99.3045 182.714 99.3045 183.04C98.3725 182.853 97.1609 181.874 97.0211 180.941C96.9745 180.568 96.9745 180.241 96.9745 180.008L99.4443 182.06Z" fill="black"/>
<path d="M94.4109 175.389C95.0633 178.282 95.2497 180.008 96.9739 181.314C99.5369 183.32 102.939 181.547 103.218 178.562C103.451 175.856 102.379 171.564 99.3505 170.771C96.3215 169.931 93.8051 172.497 94.4109 175.389Z" fill="#CE7A63"/>
<path d="M98.9785 175.67C99.0252 175.903 99.1651 176.089 99.3051 176.089C99.445 176.089 99.5383 175.856 99.5383 175.623C99.4917 175.39 99.3517 175.203 99.2118 175.203C99.0252 175.203 98.9319 175.436 98.9785 175.67Z" fill="#263238"/>
<path d="M101.682 175.342C101.728 175.575 101.868 175.761 102.008 175.761C102.148 175.761 102.241 175.528 102.241 175.295C102.195 175.062 102.055 174.875 101.915 174.875C101.728 174.922 101.635 175.108 101.682 175.342Z" fill="#263238"/>
<path d="M100.842 175.574C100.842 175.574 101.587 176.88 102.286 177.487C101.913 177.907 101.168 177.813 101.168 177.813L100.842 175.574Z" fill="#BA4D3C"/>
<path d="M97.9991 174.922H97.9525C97.9059 174.875 97.8593 174.782 97.9059 174.735C98.2787 174.082 98.9311 174.035 98.9777 174.035C99.0709 174.035 99.1175 174.082 99.1175 174.175C99.1175 174.268 99.0709 174.315 98.9777 174.315C98.9311 174.315 98.4651 174.362 98.1389 174.875C98.0923 174.875 98.0457 174.922 97.9991 174.922Z" fill="#263238"/>
<path d="M102.706 174.269C102.659 174.269 102.613 174.269 102.566 174.223C102.193 173.709 101.681 173.663 101.681 173.663C101.587 173.663 101.541 173.616 101.541 173.523C101.541 173.429 101.587 173.383 101.681 173.383C101.727 173.383 102.38 173.383 102.799 174.036C102.846 174.083 102.846 174.176 102.752 174.223C102.752 174.269 102.706 174.269 102.706 174.269Z" fill="#263238"/>
<path d="M95.4834 177.721C95.4834 177.721 96.7882 178.561 96.6484 177.535C96.5086 176.508 96.0892 173.056 96.0892 173.056L97.5338 171.89C97.5338 171.89 103.592 171.937 103.219 168.858C102.846 165.779 100.004 168.205 100.004 168.205C100.004 168.205 100.563 166.479 98.559 166.479C96.5086 166.525 96.2756 168.438 96.2756 168.438C96.2756 168.438 94.365 167.318 93.3864 168.298C92.4544 169.324 92.6874 170.817 92.6874 170.817C92.6874 170.817 88.0274 171.47 91.0564 175.949C94.0854 180.427 96.2756 181.08 95.4834 177.721Z" fill="#263238"/>
<path d="M93.7589 178.42C94.2715 179.027 94.9705 179.4 95.5763 179.493C96.5083 179.633 96.6947 178.794 96.2287 178.001C95.8093 177.254 94.8307 176.274 94.0385 176.508C93.2463 176.694 93.1531 177.674 93.7589 178.42Z" fill="#CE7A63"/>
<path d="M98.0005 181.546C97.5811 180.473 97.0218 178.654 97.6276 177.021C98.2334 175.388 100.47 178.187 101.262 178.187C102.055 178.187 102.707 176.975 103.173 177.814C103.639 178.654 101.635 183.506 101.216 182.246C101.216 182.246 100.657 183.132 100.144 182.339C100.144 182.339 99.7712 182.992 99.2586 182.339C99.212 182.339 98.4665 182.666 98.0005 181.546Z" fill="#263238"/>
<path opacity="0.3" d="M98.0005 181.546C97.5811 180.473 97.0218 178.654 97.6276 177.021C98.2334 175.388 100.47 178.187 101.262 178.187C102.055 178.187 102.707 176.975 103.173 177.814C103.639 178.654 101.635 183.506 101.216 182.246C101.216 182.246 100.657 183.132 100.144 182.339C100.144 182.339 99.7712 182.992 99.2586 182.339C99.212 182.339 98.4665 182.666 98.0005 181.546Z" fill="white"/>
<path d="M102.007 178.608C102.007 178.608 101.122 178.375 98.6522 178.328C98.9318 179.075 99.4444 179.728 100.749 179.728C101.961 179.728 102.007 178.608 102.007 178.608Z" fill="#263238"/>
<path d="M100.097 179.121C100.703 179.121 101.169 179.308 101.495 179.541C101.308 179.681 101.029 179.774 100.703 179.728C100.097 179.728 99.6308 179.588 99.3046 179.308C99.491 179.168 99.7706 179.121 100.097 179.121Z" fill="#A02724"/>
<path d="M101.868 178.561C101.775 178.701 101.728 178.888 101.448 178.935C100.936 178.935 99.5844 178.795 99.2582 178.701C99.0252 178.655 98.8388 178.561 98.699 178.328C100.656 178.375 101.588 178.515 101.868 178.561Z" fill="white"/>
<path d="M190.128 213.923C189.942 213.876 189.755 214.016 189.662 214.296C189.569 214.576 189.615 214.856 189.802 214.903C189.988 214.949 190.175 214.763 190.315 214.529C190.362 214.249 190.268 213.97 190.128 213.923Z" fill="#2E353A"/>
<path d="M189.149 216.816C188.729 216.769 188.403 216.536 188.17 216.21C188.869 215.79 189.475 215.277 190.034 214.717L189.149 216.816Z" fill="#A02724"/>
<path d="M191.292 213.552C191.246 213.132 190.966 212.805 190.593 212.619C190.5 212.572 190.5 212.479 190.5 212.432C190.547 212.339 190.64 212.292 190.686 212.339C191.152 212.572 191.479 212.992 191.572 213.552C191.572 213.645 191.525 213.738 191.432 213.738C191.385 213.738 191.385 213.738 191.339 213.738C191.339 213.645 191.292 213.598 191.292 213.552Z" fill="#2E353A"/>
<path d="M197.864 226.474C198.051 227.267 198.191 227.687 197.445 228.013C195.907 228.806 194.23 229.086 192.599 228.806C190.874 228.526 190.548 227.92 190.641 227.407C190.688 226.987 191.061 226.754 191.434 226.567C192.179 226.287 192.692 225.494 192.692 224.608C192.738 224.188 192.785 223.395 192.645 223.255L195.721 221.202L198.051 218.59C197.538 220.782 197.398 224.421 197.864 226.474Z" fill="#B55B52"/>
<path d="M188.217 228.293C188.217 228.293 189.335 225.167 191.199 224.421C193.063 223.674 198.562 224.094 198.562 224.094C198.842 225.214 199.168 226.333 199.587 227.406L188.217 228.293Z" fill="#316AFF"/>
<path d="M199.495 215.184C199.402 212.619 197.258 210.566 194.649 210.659C191.107 210.799 189.01 215.371 188.684 218.497C188.311 221.949 191.76 224.841 195.022 223.302C197.212 222.275 197.818 220.363 199.122 217.237C199.402 216.584 199.495 215.884 199.495 215.184Z" fill="#B55B52"/>
<path opacity="0.2" d="M198.936 225.445C199.122 226.098 199.355 226.751 199.588 227.404L189.057 228.197C189.29 227.684 189.616 227.031 190.035 226.424C192.598 225.398 197.025 225.398 198.936 225.445Z" fill="black"/>
<path d="M196.978 221.947C196.605 221.854 196.046 221.807 195.3 221.947C194.741 222.041 194.182 221.807 193.902 221.248L192.225 217.796C192.225 217.796 189.848 217.002 192.784 212.244C192.784 212.244 187.238 210.425 191.339 206.599C195.44 202.821 192.784 207.952 192.784 207.952C192.784 207.952 197.956 205.153 195.393 208.699C195.393 208.699 203.315 209.119 201.358 213.41C201.358 213.41 204.62 213.457 198.236 221.481C197.91 221.854 197.444 222.041 196.978 221.947Z" fill="#263238"/>
<path d="M193.483 215.557C192.598 215.417 191.619 216.35 191.293 217.143C190.967 218.076 191.386 219.102 192.318 218.869C193.064 218.683 193.67 218.216 194.089 217.563C194.602 216.723 194.369 215.697 193.483 215.557Z" fill="#B55B52"/>
<path d="M198.236 230.578C198.655 231.371 199.075 232.257 199.494 233.144C199.913 234.03 200.286 234.87 200.659 235.756C201.032 236.643 201.405 237.482 201.684 238.369C201.964 239.208 202.243 240.095 202.337 240.794C202.383 241.168 202.43 241.494 202.43 241.634C202.43 241.681 202.43 241.681 202.43 241.727L202.476 241.681C202.57 241.587 202.104 242.101 201.777 242.334C201.451 242.567 201.078 242.8 200.706 243.034C199.121 243.92 197.304 244.713 195.533 245.553L196.139 248.025C197.211 247.932 198.236 247.792 199.261 247.605C200.286 247.419 201.311 247.139 202.337 246.766C202.849 246.579 203.408 246.392 203.921 246.113C204.48 245.833 205.039 245.553 205.645 244.993C205.971 244.713 206.298 244.386 206.577 243.827C206.624 243.78 206.67 243.687 206.67 243.593L206.764 243.407C206.81 243.267 206.857 243.174 206.903 243.034C206.997 242.8 207.043 242.567 207.09 242.381C207.23 241.541 207.23 240.888 207.183 240.235C207.043 238.975 206.81 237.902 206.484 236.829C206.158 235.803 205.832 234.776 205.412 233.797C205.039 232.817 204.62 231.838 204.154 230.904C203.688 229.971 203.269 229.038 202.709 228.105L198.236 230.578Z" fill="#B55B52"/>
<path d="M196.652 245.601L192.877 244.621L192.551 248.027C192.551 248.027 195.114 249.1 196.698 247.42L196.652 245.601Z" fill="#B55B52"/>
<path d="M191.339 245.088L190.547 247.84L192.551 248.027L192.877 244.621L191.339 245.088Z" fill="#B55B52"/>
<path d="M206.251 234.59L199.773 237.809C199.773 237.809 199.447 237.715 196.884 233.657C193.948 228.898 195.533 226.239 199.121 226.099C202.802 225.913 204.107 230.438 206.251 234.59Z" fill="#316AFF"/>
<path opacity="0.2" d="M204.248 235.57L201.172 237.11L199.588 235.244L201.359 230.579L201.825 230.066L203.036 229.879L204.248 235.57Z" fill="black"/>
<path d="M164.172 285.113L160.956 283.76L158.533 291.457L161.702 292.857L164.172 285.113Z" fill="#B55B52"/>
<path opacity="0.2" d="M164.171 285.111L160.956 283.758L159.744 287.583L163.006 288.889L164.171 285.111Z" fill="black"/>
<path d="M158.16 290.104C157.182 290.897 155.225 291.503 153.733 291.597C152.568 291.643 152.475 292.996 153.92 293.229C155.364 293.463 157.881 293.369 158.953 293.416C160.677 293.463 161.283 293.743 162.634 293.743C162.96 293.743 163.24 293.416 163.24 293.089L162.96 290.01C162.96 289.871 162.82 289.777 162.681 289.777L158.766 289.917C158.533 289.871 158.3 289.964 158.16 290.104Z" fill="#263238"/>
<path d="M193.53 253.156C193.53 253.156 196.233 256.375 194.043 261.413C191.573 267.151 178.571 264.632 171.442 266.452C170.416 276.575 164.498 286.978 164.498 286.978L159.559 285.019C159.559 285.019 161.702 276.948 163.287 262.626C164.079 255.582 181.927 254.836 181.927 254.836L193.53 253.156Z" fill="#263238"/>
<path d="M165.523 286.138L159.232 283.898L158.812 286.231L164.591 288.33L165.523 286.138Z" fill="#263238"/>
<path d="M179.409 288.425L175.914 288.285L176.473 296.496L179.968 296.636L179.409 288.425Z" fill="#B55B52"/>
<path d="M175.541 295.608C174.563 296.401 172.978 297.52 171.487 297.754C170.555 297.894 169.809 299.34 171.58 299.34C173.351 299.34 175.308 299.153 176.333 299.153C178.058 299.107 178.617 299.247 180.015 299.247C180.341 299.247 180.621 298.967 180.621 298.593L180.341 295.515C180.341 295.375 180.201 295.281 180.061 295.281L176.147 295.421C175.914 295.375 175.728 295.468 175.541 295.608Z" fill="#263238"/>
<path opacity="0.2" d="M179.689 292.95H176.24L175.914 288.285L179.409 288.472L179.689 292.95Z" fill="black"/>
<path d="M202.198 253.715C202.198 253.715 205.041 259.5 202.291 263.185C199.775 266.544 187.006 266.777 180.529 266.777C181.181 274.708 180.482 290.989 180.482 290.989L175.263 290.895C175.263 290.895 171.582 275.221 170.836 264.258C170.417 258.193 192.039 254.135 192.039 254.135L202.198 253.715Z" fill="#263238"/>
<path d="M181.134 289.917L174.004 289.73L174.33 291.876L180.854 291.97L181.134 289.917Z" fill="#263238"/>
<path d="M202.804 254.042L181.461 254.928L183.465 230.95C183.698 228.244 185.981 226.145 188.684 226.145H199.309C201.359 226.145 203.037 227.824 202.99 229.877L202.804 254.042Z" fill="#316AFF"/>
<path d="M184.63 229.738L184.024 230.998C183.837 231.418 183.604 231.884 183.371 232.304C182.952 233.144 182.486 234.03 182.02 234.823C181.554 235.663 181.088 236.456 180.575 237.249C180.063 238.042 179.55 238.788 178.991 239.442C178.711 239.768 178.432 240.095 178.152 240.421C178.152 240.421 177.966 240.561 177.64 240.468C177.313 240.375 176.894 240.235 176.521 240.095C174.937 239.395 173.213 238.369 171.582 237.342L169.857 239.208C170.556 240.048 171.255 240.841 172.048 241.541C172.84 242.287 173.679 242.987 174.657 243.593C175.123 243.92 175.682 244.2 176.288 244.48C176.894 244.713 177.593 244.993 178.572 244.993C179.084 244.993 179.643 244.9 180.249 244.62C180.529 244.48 180.808 244.293 181.041 244.107L181.368 243.827C181.787 243.454 182.206 243.034 182.626 242.614C184.164 240.981 185.422 239.208 186.54 237.389C187.099 236.456 187.612 235.57 188.078 234.59C188.311 234.123 188.544 233.657 188.777 233.144C189.01 232.677 189.196 232.211 189.429 231.651L184.63 229.738Z" fill="#B55B52"/>
<path d="M172.14 238.229L170.462 234.684L167.666 236.643C167.666 236.643 168.505 239.255 170.788 239.442L172.14 238.229Z" fill="#B55B52"/>
<path d="M169.065 233.844L166.455 235.01L167.62 236.643L170.416 234.683L169.065 233.844Z" fill="#B55B52"/>
<path d="M186.913 238.882L180.901 234.916C180.901 234.916 180.808 234.59 183.045 230.298C185.654 225.353 188.777 225.353 190.687 228.385C192.598 231.464 189.382 234.916 186.913 238.882Z" fill="#316AFF"/>
<path d="M212.962 299.2C213.148 299.106 213.241 298.826 213.148 298.64L196.698 268.317C196.605 268.13 196.325 268.037 196.139 268.13C195.953 268.224 195.859 268.504 195.953 268.69L212.402 299.013C212.496 299.246 212.729 299.293 212.962 299.2Z" fill="#316AFF"/>
<g opacity="0.2">
<path d="M212.962 299.2C213.148 299.106 213.241 298.826 213.148 298.64L196.698 268.317C196.605 268.13 196.325 268.037 196.139 268.13C195.953 268.224 195.859 268.504 195.953 268.69L212.402 299.013C212.496 299.246 212.729 299.293 212.962 299.2Z" fill="black"/>
</g>
<path opacity="0.2" d="M204.993 285.44L203.549 282.781L204.015 281.848L205.459 284.553L204.993 285.44Z" fill="black"/>
<path d="M189.43 299.2C189.617 299.106 189.71 298.826 189.617 298.64L173.167 268.317C173.074 268.13 172.794 268.037 172.608 268.13C172.421 268.224 172.328 268.504 172.421 268.69L188.871 299.013C188.964 299.246 189.197 299.293 189.43 299.2Z" fill="#316AFF"/>
<g opacity="0.2">
<path d="M189.43 299.2C189.617 299.106 189.71 298.826 189.617 298.64L173.167 268.317C173.074 268.13 172.794 268.037 172.608 268.13C172.421 268.224 172.328 268.504 172.421 268.69L188.871 299.013C188.964 299.246 189.197 299.293 189.43 299.2Z" fill="black"/>
</g>
<path opacity="0.2" d="M181.46 285.44L180.016 282.781L180.482 281.848L181.926 284.553L181.46 285.44Z" fill="black"/>
<path d="M173.119 299.014L189.569 268.691C189.662 268.504 189.615 268.224 189.382 268.131C189.196 268.038 188.916 268.084 188.823 268.318L172.373 298.64C172.28 298.827 172.327 299.107 172.56 299.2C172.746 299.294 172.979 299.247 173.119 299.014Z" fill="#316AFF"/>
<g opacity="0.2">
<path d="M173.119 299.014L189.569 268.691C189.662 268.504 189.615 268.224 189.382 268.131C189.196 268.038 188.916 268.084 188.823 268.318L172.373 298.64C172.28 298.827 172.327 299.107 172.56 299.2C172.746 299.294 172.979 299.247 173.119 299.014Z" fill="black"/>
</g>
<path d="M196.652 299.014L213.102 268.691C213.195 268.504 213.148 268.224 212.915 268.131C212.729 268.038 212.449 268.084 212.356 268.318L195.906 298.64C195.813 298.827 195.86 299.107 196.093 299.2C196.279 299.294 196.559 299.247 196.652 299.014Z" fill="#316AFF"/>
<g opacity="0.2">
<path d="M196.652 299.014L213.102 268.691C213.195 268.504 213.148 268.224 212.915 268.131C212.729 268.038 212.449 268.084 212.356 268.318L195.906 298.64C195.813 298.827 195.86 299.107 196.093 299.2C196.279 299.294 196.559 299.247 196.652 299.014Z" fill="black"/>
</g>
<path d="M193.158 266.777H174.052C172.84 266.777 171.861 267.757 171.861 268.97H193.204V266.777H193.158Z" fill="#316AFF"/>
<path d="M206.765 238.648C213.476 238.648 218.276 243.687 217.903 250.358L217.157 264.959C217.017 267.199 215.2 268.971 212.917 268.971H185.889L191.481 250.358C193.484 243.64 200.008 238.648 206.765 238.648Z" fill="#316AFF"/>
<path opacity="0.3" d="M206.765 238.648C213.476 238.648 218.276 243.687 217.903 250.358L217.157 264.959C217.017 267.199 215.2 268.971 212.917 268.971H185.889L191.481 250.358C193.484 243.64 200.008 238.648 206.765 238.648Z" fill="white"/>
<path d="M149.26 227.358C149.726 228.99 149.819 230.763 147.489 231.416C147.489 231.416 145.299 234.542 147.908 236.641C149.586 234.449 151.683 232.583 154.106 231.23C152.568 229.83 152.848 225.912 153.221 223.766L149.26 227.358Z" fill="#CE7A63"/>
<path d="M146.325 218.773C146.139 218.726 145.905 218.913 145.812 219.193C145.719 219.473 145.812 219.752 145.999 219.799C146.185 219.846 146.418 219.659 146.512 219.379C146.605 219.099 146.512 218.819 146.325 218.773Z" fill="#2E353A"/>
<path d="M145.812 218.4L146.419 218.82C145.999 219.054 145.812 218.4 145.812 218.4Z" fill="#2E353A"/>
<path d="M145.719 221.76C145.346 221.76 145.02 221.574 144.787 221.247C145.393 220.827 145.906 220.361 146.325 219.801L145.719 221.76Z" fill="#BA4D3C"/>
<path d="M146.977 216.955C147.349 217.188 147.536 217.608 147.582 218.028C147.582 218.121 147.676 218.215 147.769 218.215C147.862 218.215 147.955 218.168 147.955 218.075C147.955 217.515 147.676 217.002 147.256 216.675C147.163 216.629 147.07 216.629 147.023 216.722C146.977 216.768 146.977 216.815 147.023 216.908C146.977 216.908 146.977 216.955 146.977 216.955Z" fill="#2E353A"/>
<path d="M156.623 218.96C156.39 216.301 154.06 214.295 151.357 214.528C147.583 214.808 145.486 219.706 145.253 223.019C144.973 226.657 148.794 228.99 152.196 227.217C154.48 226.004 154.946 224.605 156.25 221.246C156.577 220.499 156.716 219.753 156.623 218.96Z" fill="#CE7A63"/>
<path d="M158.487 223.299C163.427 217.048 157.369 215.275 157.369 215.275C155.458 212.663 152.336 212.103 149.494 213.222C146.604 214.342 147.49 216.255 148.515 216.441C146.558 219.054 147.676 220.313 148.329 220.5C147.303 226.984 153.548 229.504 158.487 223.299Z" fill="#263238"/>
<path d="M149.913 220.639C150.006 219.94 149.494 219.333 148.795 219.24C147.863 219.147 147.117 220.266 146.884 221.106C146.651 221.992 147.164 222.832 148.096 222.552C148.795 222.319 149.4 221.806 149.727 221.153C149.82 221.013 149.866 220.826 149.913 220.639Z" fill="#CE7A63"/>
<path d="M155.086 231.65C155.086 231.65 154.107 230.997 154.154 229.83C154.154 229.83 147.257 228.804 145.812 230.39C145.812 230.39 147.863 230.297 147.071 231.976L155.086 231.65Z" fill="#316AFF"/>
<path opacity="0.6" d="M155.086 231.65C155.086 231.65 154.107 230.997 154.154 229.83C154.154 229.83 147.257 228.804 145.812 230.39C145.812 230.39 147.863 230.297 147.071 231.976L155.086 231.65Z" fill="white"/>
<path d="M147.91 252.036L147.863 253.809C150.007 254.089 152.197 254.182 154.387 254.136C155.552 254.136 156.671 253.996 157.789 253.762C158.115 253.669 158.441 253.576 158.768 253.482C158.954 253.389 159.14 253.296 159.327 253.203C159.56 253.063 159.793 252.876 160.026 252.643C160.166 252.503 160.305 252.316 160.399 252.13C160.445 252.036 160.492 251.896 160.538 251.756C160.585 251.616 160.585 251.523 160.585 251.383L160.632 250.963L160.771 250.124C161.004 247.931 161.144 245.832 161.237 243.686C161.331 241.54 161.377 239.394 161.377 237.248H157.742L157.649 243.593C157.603 245.692 157.556 247.791 157.463 249.89L157.416 250.59C157.276 250.637 157.137 250.73 156.997 250.73C156.065 251.01 155.086 251.197 154.154 251.336C152.104 251.663 150.007 251.85 147.91 252.036Z" fill="#CE7A63"/>
<path d="M154.666 236.129C154.666 238.321 155.971 242.473 155.971 242.473L161.423 239.114C161.656 236.268 161.097 232.676 158.394 231.79C156.577 231.184 154.666 233.796 154.666 236.129Z" fill="#263238"/>
<path opacity="0.6" d="M158.58 234.542L159.839 235.801L160.072 239.953L155.971 242.472C155.971 242.472 154.666 238.367 154.666 236.128C154.666 235.568 154.806 235.008 154.992 234.448L156.856 233.889L158.58 234.542Z" fill="black"/>
<path d="M142.922 253.016C142.783 252.643 142.922 252.223 143.295 252.083L144.833 251.43C145.159 251.29 145.532 251.29 145.905 251.336L149.26 252.27L149.679 253.389C149.167 254.695 146.93 254.462 146.93 254.462L145.346 254.975C144.926 255.115 144.46 254.975 144.227 254.649L143.062 253.203C142.969 253.109 142.922 253.063 142.922 253.016Z" fill="#CE7A63"/>
<path d="M145.346 231.697C146.045 231.557 146.791 231.464 147.49 231.37C149.68 231.137 151.917 231.09 154.107 231.184C155.179 231.184 156.25 231.277 157.182 231.37C157.229 231.37 157.229 231.37 157.276 231.37C158.953 231.604 160.165 233.143 159.932 234.822C158.627 244.293 158.021 248.304 158.394 253.716L143.762 254.136C142.037 245.319 141.385 240.047 141.152 236.968C141.012 234.449 142.83 232.117 145.346 231.697Z" fill="#263238"/>
<path d="M128.384 285.996L124.935 285.67L122.605 294.16L126.054 294.487L128.384 285.996Z" fill="#CE7A63"/>
<path d="M117.712 278.346L114.776 275.547L110.861 281.518L113.238 283.524L117.712 278.346Z" fill="#CE7A63"/>
<path d="M157.043 253.856C157.742 253.856 158.394 254.322 158.534 255.022C160.491 262.72 158.301 267.385 152.802 267.385C147.676 267.385 133.743 262.813 129.362 261.413C125.681 272.05 115.103 281.52 115.103 281.52L112.307 278.954C112.307 278.954 118.458 267.058 122.745 256.468C125.215 250.404 148.888 253.903 148.888 253.903C148.888 253.903 153.641 253.856 157.043 253.856Z" fill="#316AFF"/>
<path opacity="0.6" d="M157.043 253.856C157.742 253.856 158.394 254.322 158.534 255.022C160.491 262.72 158.301 267.385 152.802 267.385C147.676 267.385 133.743 262.813 129.362 261.413C125.681 272.05 115.103 281.52 115.103 281.52L112.307 278.954C112.307 278.954 118.458 267.058 122.745 256.468C125.215 250.404 148.888 253.903 148.888 253.903C148.888 253.903 153.641 253.856 157.043 253.856Z" fill="white"/>
<path d="M153.502 253.762C159.047 261.086 158.628 267.384 152.896 267.384C147.77 267.384 141.386 267.664 134.489 267.244C132.951 278.393 127.173 291.409 127.173 291.409L123.352 291.035C123.352 291.035 126.847 274.754 127.126 263.325C127.313 256.421 146.698 257.027 146.698 257.027C146.698 257.027 150.1 253.762 153.502 253.762Z" fill="#316AFF"/>
<path opacity="0.6" d="M153.502 253.762C159.047 261.086 158.628 267.384 152.896 267.384C147.77 267.384 141.386 267.664 134.489 267.244C132.951 278.393 127.173 291.409 127.173 291.409L123.352 291.035C123.352 291.035 126.847 274.754 127.126 263.325C127.313 256.421 146.698 257.027 146.698 257.027C146.698 257.027 150.1 253.762 153.502 253.762Z" fill="white"/>
<path d="M158.394 252.781L143.575 253.201C143.435 253.201 143.342 253.294 143.342 253.388L143.528 254.694C143.528 254.787 143.668 254.834 143.761 254.834L158.813 254.414C158.999 254.414 159.093 254.321 159.046 254.181L158.627 252.875C158.58 252.828 158.487 252.781 158.394 252.781Z" fill="#263238"/>
<path d="M131.738 247.043C133.136 247.976 134.627 248.769 136.165 249.469C136.957 249.842 137.796 250.122 138.635 250.402C139.148 250.542 139.66 250.636 140.173 250.682C140.546 250.682 140.965 250.636 141.338 250.542C141.664 250.449 141.944 250.262 142.177 250.029C142.27 249.936 142.316 249.889 142.363 249.796L142.456 249.656L142.503 249.563L142.596 249.423C143.528 247.836 144.134 246.11 144.507 244.291C144.693 243.451 144.833 242.565 144.879 241.679C144.926 241.212 144.973 240.792 144.973 240.372C145.019 239.953 145.019 239.533 144.973 239.02L141.338 239.066C141.338 239.393 141.291 239.813 141.291 240.186C141.291 240.559 141.245 240.932 141.198 241.352C141.151 242.098 141.058 242.892 140.918 243.638C140.779 244.384 140.639 245.084 140.452 245.831C140.266 246.39 140.08 246.997 139.847 247.51C139.66 247.51 139.427 247.51 139.241 247.463C138.495 247.323 137.75 247.137 137.051 246.95C135.559 246.53 133.975 246.017 132.437 245.504L131.738 247.043Z" fill="#CE7A63"/>
<path d="M147.071 236.128C148.143 237.807 145.627 242.099 145.627 242.099L141.06 241.586C141.06 241.586 140.128 235.848 142.365 233.515C143.53 232.209 145.906 234.355 147.071 236.128Z" fill="#263238"/>
<path d="M128.664 245.878C128.571 245.832 128.478 245.738 128.524 245.598L130.901 238.414C130.947 238.321 131.041 238.227 131.18 238.274C131.274 238.321 131.367 238.414 131.32 238.554L128.944 245.738C128.897 245.832 128.85 245.878 128.757 245.878C128.757 245.925 128.711 245.925 128.664 245.878Z" fill="#2E353A"/>
<path d="M129.41 241.866C128.99 241.819 128.617 242.146 128.617 242.566L128.431 244.572C128.384 244.898 128.571 245.178 128.85 245.318L130.528 246.204C130.528 246.204 133.417 248.91 134.629 248.21L133.743 246.298L132.019 243.312C131.833 242.985 131.507 242.705 131.18 242.566L129.736 241.959C129.549 241.866 129.503 241.866 129.41 241.866Z" fill="#CE7A63"/>
<path d="M110.816 280.165C109.651 280.071 107.973 279.185 106.901 278.252C106.109 277.552 105.177 278.345 105.969 279.465C106.761 280.584 108.532 282.17 109.231 282.87C110.35 284.037 110.536 284.596 111.468 285.483C111.701 285.716 112.074 285.669 112.26 285.436L114.078 283.197C114.171 283.104 114.171 282.964 114.031 282.87L111.328 280.398C111.235 280.258 111.049 280.211 110.816 280.165Z" fill="#316AFF"/>
<path d="M122.326 293.975C121.488 294.815 120.09 295.981 118.738 296.354C117.853 296.587 117.34 297.987 118.971 297.8C120.649 297.614 122.42 297.287 123.398 297.147C124.983 296.914 125.542 297.007 126.8 296.914C127.126 296.867 127.313 296.587 127.266 296.261L126.707 293.415C126.66 293.275 126.567 293.229 126.427 293.229L122.792 293.695C122.653 293.695 122.466 293.788 122.326 293.975Z" fill="#316AFF"/>
<path d="M167.901 299.293C168.087 299.2 168.181 298.92 168.087 298.734L151.638 268.411C151.544 268.224 151.265 268.131 151.078 268.224C150.892 268.317 150.799 268.597 150.892 268.784L167.342 299.107C167.435 299.293 167.715 299.387 167.901 299.293Z" fill="#316AFF"/>
<g opacity="0.2">
<path d="M167.901 299.293C168.087 299.2 168.181 298.92 168.087 298.734L151.638 268.411C151.544 268.224 151.265 268.131 151.078 268.224C150.892 268.317 150.799 268.597 150.892 268.784L167.342 299.107C167.435 299.293 167.715 299.387 167.901 299.293Z" fill="black"/>
</g>
<path opacity="0.2" d="M159.978 285.53L158.486 282.824L158.999 281.938L160.444 284.643L159.978 285.53Z" fill="black"/>
<path d="M144.368 299.293C144.554 299.2 144.647 298.92 144.554 298.734L128.104 268.411C128.011 268.224 127.732 268.131 127.545 268.224C127.359 268.317 127.266 268.597 127.359 268.784L143.809 299.107C143.902 299.293 144.181 299.387 144.368 299.293Z" fill="#316AFF"/>
<g opacity="0.2">
<path d="M144.368 299.293C144.554 299.2 144.647 298.92 144.554 298.734L128.104 268.411C128.011 268.224 127.732 268.131 127.545 268.224C127.359 268.317 127.266 268.597 127.359 268.784L143.809 299.107C143.902 299.293 144.181 299.387 144.368 299.293Z" fill="black"/>
</g>
<path opacity="0.2" d="M136.398 285.53L134.953 282.824L135.466 281.938L136.91 284.643L136.398 285.53Z" fill="black"/>
<path d="M128.058 299.105L144.508 268.783C144.601 268.596 144.555 268.316 144.322 268.223C144.135 268.129 143.856 268.176 143.762 268.409L127.313 298.732C127.219 298.919 127.266 299.199 127.499 299.292C127.685 299.385 127.965 299.292 128.058 299.105Z" fill="#316AFF"/>
<g opacity="0.2">
<path d="M128.058 299.105L144.508 268.783C144.601 268.596 144.555 268.316 144.322 268.223C144.135 268.129 143.856 268.176 143.762 268.409L127.313 298.732C127.219 298.919 127.266 299.199 127.499 299.292C127.685 299.385 127.965 299.292 128.058 299.105Z" fill="black"/>
</g>
<path d="M151.589 299.105L168.039 268.783C168.132 268.596 168.086 268.316 167.853 268.223C167.666 268.129 167.387 268.176 167.294 268.409L150.844 298.732C150.751 298.919 150.797 299.199 151.03 299.292C151.263 299.385 151.496 299.292 151.589 299.105Z" fill="#316AFF"/>
<g opacity="0.2">
<path d="M151.589 299.105L168.039 268.783C168.132 268.596 168.086 268.316 167.853 268.223C167.666 268.129 167.387 268.176 167.294 268.409L150.844 298.732C150.751 298.919 150.797 299.199 151.03 299.292C151.263 299.385 151.496 299.292 151.589 299.105Z" fill="black"/>
</g>
<path d="M148.142 266.824H129.036C127.824 266.824 126.846 267.804 126.846 269.017H148.188V266.824H148.142Z" fill="#316AFF"/>
<path d="M161.703 238.693C168.413 238.693 173.213 243.732 172.84 250.403L172.095 265.004C171.955 267.243 170.138 269.016 167.854 269.016H140.826L146.418 250.403C148.422 243.732 154.993 238.693 161.703 238.693Z" fill="#316AFF"/>
<path opacity="0.3" d="M161.703 238.693C168.413 238.693 173.213 243.732 172.84 250.403L172.095 265.004C171.955 267.243 170.138 269.016 167.854 269.016H140.826L146.418 250.403C148.422 243.732 154.993 238.693 161.703 238.693Z" fill="white"/>
</g>
<defs>
<clipPath id="clip0_106_1400">
<rect width="233" height="173.587" fill="white" transform="translate(0 128.738)"/>
</clipPath>
</defs>
</svg>
