<svg width="133" height="33" viewBox="0 0 133 33" fill="none" xmlns="http://www.w3.org/2000/svg">
<path d="M24.5169 12.4441C24.5169 7.31916 21.1587 5.81644 21.1587 5.81644C19.4662 5.03934 16.5586 4.71281 13.5388 4.6875H13.4646C10.4439 4.71281 7.53892 5.03934 5.84551 5.81644C5.84551 5.81644 2.48739 7.31831 2.48739 12.4441C2.48739 13.6177 2.4646 15.0209 2.50173 16.5084C2.62407 21.5203 3.42142 26.4605 8.05445 27.6864C10.1908 28.2517 12.026 28.3699 13.5034 28.2897C16.1823 28.1412 17.6867 27.3337 17.6867 27.3337L17.5981 25.3897C17.5981 25.3897 15.6828 25.993 13.5329 25.9196C11.4024 25.8462 9.15385 25.6901 8.8096 23.0745C8.77673 22.8312 8.76066 22.5859 8.76151 22.3404C8.76151 22.3404 10.8532 22.8526 13.5034 22.9732C15.1234 23.0475 16.6438 22.8787 18.187 22.6948C21.1469 22.3404 23.7246 20.5171 24.0486 18.8507C24.559 16.2249 24.5169 12.4441 24.5169 12.4441ZM20.5563 19.0473H18.0976V13.0237C18.0976 11.7539 17.5635 11.1101 16.4945 11.1101C15.3132 11.1101 14.7209 11.8746 14.7209 13.3857V16.6831H12.2774V13.3857C12.2774 11.8746 11.6851 11.1101 10.5039 11.1101C9.43482 11.1101 8.90073 11.7539 8.90073 13.0237V19.0473H6.44204V12.8415C6.44204 11.5733 6.7652 10.5651 7.41404 9.82003C8.08229 9.07416 8.9581 8.69194 10.0465 8.69194C11.3037 8.69194 12.2572 9.17541 12.8866 10.1432L13.4992 11.1683L14.1117 10.1415C14.7412 9.17456 15.6946 8.69109 16.9526 8.69109C18.0394 8.69109 18.9152 9.07331 19.5851 9.81919C20.2331 10.5642 20.5554 11.5725 20.5554 12.8407V19.0464L20.5563 19.0473Z" fill="#316AFF"/>
<path d="M40.288 24.192C39.84 24.192 39.496 24.064 39.256 23.808C39.016 23.552 38.896 23.2 38.896 22.752V8.328C38.896 7.864 39.024 7.512 39.28 7.272C39.536 7.016 39.888 6.888 40.336 6.888C40.736 6.888 41.048 6.968 41.272 7.128C41.512 7.272 41.728 7.528 41.92 7.896L47.848 18.864H47.08L53.008 7.896C53.2 7.528 53.408 7.272 53.632 7.128C53.856 6.968 54.168 6.888 54.568 6.888C55.016 6.888 55.36 7.016 55.6 7.272C55.84 7.512 55.96 7.864 55.96 8.328V22.752C55.96 23.2 55.84 23.552 55.6 23.808C55.376 24.064 55.032 24.192 54.568 24.192C54.12 24.192 53.776 24.064 53.536 23.808C53.296 23.552 53.176 23.2 53.176 22.752V11.64H53.704L48.664 20.832C48.504 21.104 48.336 21.304 48.16 21.432C47.984 21.56 47.744 21.624 47.44 21.624C47.136 21.624 46.888 21.56 46.696 21.432C46.504 21.288 46.336 21.088 46.192 20.832L41.104 11.616H41.68V22.752C41.68 23.2 41.56 23.552 41.32 23.808C41.096 24.064 40.752 24.192 40.288 24.192ZM63.2599 24.24C62.4119 24.24 61.6519 24.08 60.9799 23.76C60.3239 23.424 59.8039 22.976 59.4199 22.416C59.0519 21.856 58.8679 21.224 58.8679 20.52C58.8679 19.656 59.0919 18.976 59.5399 18.48C59.9879 17.968 60.7159 17.6 61.7239 17.376C62.7319 17.152 64.0839 17.04 65.7799 17.04H66.9799V18.768H65.8039C64.8119 18.768 64.0199 18.816 63.4279 18.912C62.8359 19.008 62.4119 19.176 62.1559 19.416C61.9159 19.64 61.7959 19.96 61.7959 20.376C61.7959 20.904 61.9799 21.336 62.3479 21.672C62.7159 22.008 63.2279 22.176 63.8839 22.176C64.4119 22.176 64.8759 22.056 65.2759 21.816C65.6919 21.56 66.0199 21.216 66.2599 20.784C66.4999 20.352 66.6199 19.856 66.6199 19.296V16.536C66.6199 15.736 66.4439 15.16 66.0919 14.808C65.7399 14.456 65.1479 14.28 64.3159 14.28C63.8519 14.28 63.3479 14.336 62.8039 14.448C62.2759 14.56 61.7159 14.752 61.1239 15.024C60.8199 15.168 60.5479 15.208 60.3079 15.144C60.0839 15.08 59.9079 14.952 59.7799 14.76C59.6519 14.552 59.5879 14.328 59.5879 14.088C59.5879 13.848 59.6519 13.616 59.7799 13.392C59.9079 13.152 60.1239 12.976 60.4279 12.864C61.1639 12.56 61.8679 12.344 62.5399 12.216C63.2279 12.088 63.8519 12.024 64.4119 12.024C65.5639 12.024 66.5079 12.2 67.2439 12.552C67.9959 12.904 68.5559 13.44 68.9239 14.16C69.2919 14.864 69.4759 15.776 69.4759 16.896V22.656C69.4759 23.152 69.3559 23.536 69.1159 23.808C68.8759 24.064 68.5319 24.192 68.0839 24.192C67.6359 24.192 67.2839 24.064 67.0279 23.808C66.7879 23.536 66.6679 23.152 66.6679 22.656V21.504H66.8599C66.7479 22.064 66.5239 22.552 66.1879 22.968C65.8679 23.368 65.4599 23.68 64.9639 23.904C64.4679 24.128 63.8999 24.24 63.2599 24.24ZM76.8169 24.24C76.1289 24.24 75.4009 24.168 74.6329 24.024C73.8649 23.88 73.1769 23.632 72.5689 23.28C72.3129 23.12 72.1289 22.936 72.0169 22.728C71.9209 22.504 71.8809 22.288 71.8969 22.08C71.9289 21.856 72.0089 21.664 72.1369 21.504C72.2809 21.344 72.4569 21.24 72.6649 21.192C72.8889 21.144 73.1289 21.184 73.3849 21.312C74.0249 21.616 74.6249 21.832 75.1849 21.96C75.7449 22.072 76.2969 22.128 76.8409 22.128C77.6089 22.128 78.1769 22 78.5449 21.744C78.9289 21.472 79.1209 21.12 79.1209 20.688C79.1209 20.32 78.9929 20.04 78.7369 19.848C78.4969 19.64 78.1289 19.488 77.6329 19.392L75.2329 18.936C74.2409 18.744 73.4809 18.384 72.9529 17.856C72.4409 17.312 72.1849 16.616 72.1849 15.768C72.1849 15 72.3929 14.336 72.8089 13.776C73.2409 13.216 73.8329 12.784 74.5849 12.48C75.3369 12.176 76.2009 12.024 77.1769 12.024C77.8809 12.024 78.5369 12.104 79.1449 12.264C79.7689 12.408 80.3689 12.64 80.9449 12.96C81.1849 13.088 81.3449 13.256 81.4249 13.464C81.5209 13.672 81.5449 13.888 81.4969 14.112C81.4489 14.32 81.3529 14.512 81.2089 14.688C81.0649 14.848 80.8809 14.952 80.6569 15C80.4489 15.032 80.2089 14.984 79.9369 14.856C79.4409 14.6 78.9609 14.416 78.4969 14.304C78.0489 14.192 77.6169 14.136 77.2009 14.136C76.4169 14.136 75.8329 14.272 75.4489 14.544C75.0809 14.816 74.8969 15.176 74.8969 15.624C74.8969 15.96 75.0089 16.24 75.2329 16.464C75.4569 16.688 75.8009 16.84 76.2649 16.92L78.6649 17.376C79.7049 17.568 80.4889 17.92 81.0169 18.432C81.5609 18.944 81.8329 19.632 81.8329 20.496C81.8329 21.664 81.3769 22.584 80.4649 23.256C79.5529 23.912 78.3369 24.24 76.8169 24.24ZM89.4985 24.24C88.4585 24.24 87.5865 24.064 86.8825 23.712C86.1945 23.36 85.6825 22.848 85.3465 22.176C85.0105 21.488 84.8425 20.64 84.8425 19.632V14.52H83.5945C83.2105 14.52 82.9145 14.424 82.7065 14.232C82.4985 14.024 82.3945 13.744 82.3945 13.392C82.3945 13.024 82.4985 12.744 82.7065 12.552C82.9145 12.36 83.2105 12.264 83.5945 12.264H84.8425V10.08C84.8425 9.584 84.9705 9.208 85.2265 8.952C85.4985 8.696 85.8745 8.568 86.3545 8.568C86.8345 8.568 87.2025 8.696 87.4585 8.952C87.7145 9.208 87.8425 9.584 87.8425 10.08V12.264H90.3865C90.7705 12.264 91.0665 12.36 91.2745 12.552C91.4825 12.744 91.5865 13.024 91.5865 13.392C91.5865 13.744 91.4825 14.024 91.2745 14.232C91.0665 14.424 90.7705 14.52 90.3865 14.52H87.8425V19.464C87.8425 20.232 88.0105 20.808 88.3465 21.192C88.6825 21.576 89.2265 21.768 89.9785 21.768C90.2505 21.768 90.4905 21.744 90.6985 21.696C90.9065 21.648 91.0905 21.616 91.2505 21.6C91.4425 21.584 91.6025 21.648 91.7305 21.792C91.8585 21.92 91.9225 22.192 91.9225 22.608C91.9225 22.928 91.8665 23.216 91.7545 23.472C91.6585 23.712 91.4745 23.88 91.2025 23.976C90.9945 24.04 90.7225 24.096 90.3865 24.144C90.0505 24.208 89.7545 24.24 89.4985 24.24ZM99.0003 24.24C97.6723 24.24 96.5283 23.992 95.5683 23.496C94.6083 23 93.8643 22.296 93.3363 21.384C92.8243 20.472 92.5683 19.392 92.5683 18.144C92.5683 16.928 92.8163 15.864 93.3123 14.952C93.8243 14.04 94.5203 13.328 95.4003 12.816C96.2963 12.288 97.3123 12.024 98.4483 12.024C99.2803 12.024 100.024 12.16 100.68 12.432C101.352 12.704 101.92 13.096 102.384 13.608C102.864 14.12 103.224 14.744 103.464 15.48C103.72 16.2 103.848 17.016 103.848 17.928C103.848 18.216 103.744 18.44 103.536 18.6C103.344 18.744 103.064 18.816 102.696 18.816H94.9923V17.088H101.736L101.352 17.448C101.352 16.712 101.24 16.096 101.016 15.6C100.808 15.104 100.496 14.728 100.08 14.472C99.6803 14.2 99.1763 14.064 98.5683 14.064C97.8963 14.064 97.3203 14.224 96.8403 14.544C96.3763 14.848 96.0163 15.288 95.7603 15.864C95.5203 16.424 95.4003 17.096 95.4003 17.88V18.048C95.4003 19.36 95.7043 20.344 96.3123 21C96.9363 21.64 97.8483 21.96 99.0483 21.96C99.4643 21.96 99.9283 21.912 100.44 21.816C100.968 21.704 101.464 21.52 101.928 21.264C102.264 21.072 102.56 20.992 102.816 21.024C103.072 21.04 103.272 21.128 103.416 21.288C103.576 21.448 103.672 21.648 103.704 21.888C103.736 22.112 103.688 22.344 103.56 22.584C103.448 22.824 103.248 23.032 102.96 23.208C102.4 23.56 101.752 23.824 101.016 24C100.296 24.16 99.6243 24.24 99.0003 24.24ZM107.76 24.192C107.264 24.192 106.88 24.064 106.608 23.808C106.352 23.536 106.224 23.152 106.224 22.656V13.584C106.224 13.088 106.352 12.712 106.608 12.456C106.864 12.2 107.224 12.072 107.688 12.072C108.152 12.072 108.512 12.2 108.768 12.456C109.024 12.712 109.152 13.088 109.152 13.584V15.096H108.912C109.136 14.136 109.576 13.408 110.232 12.912C110.888 12.416 111.76 12.12 112.848 12.024C113.184 11.992 113.448 12.08 113.64 12.288C113.848 12.48 113.968 12.784 114 13.2C114.032 13.6 113.936 13.928 113.712 14.184C113.504 14.424 113.184 14.568 112.752 14.616L112.224 14.664C111.248 14.76 110.512 15.064 110.016 15.576C109.52 16.072 109.272 16.776 109.272 17.688V22.656C109.272 23.152 109.144 23.536 108.888 23.808C108.632 24.064 108.256 24.192 107.76 24.192ZM129.975 26.712C130.199 27.064 130.287 27.384 130.239 27.672C130.191 27.96 130.063 28.2 129.855 28.392C129.647 28.6 129.391 28.728 129.087 28.776C128.783 28.84 128.479 28.808 128.174 28.68C127.871 28.568 127.615 28.344 127.407 28.008L125.751 25.344C125.527 24.976 125.223 24.696 124.839 24.504C124.471 24.328 124.015 24.24 123.471 24.24L125.847 23.304C126.599 23.304 127.199 23.44 127.647 23.712C128.095 23.968 128.527 24.424 128.943 25.08L129.975 26.712ZM123.495 24.24C121.863 24.24 120.431 23.88 119.199 23.16C117.983 22.44 117.039 21.432 116.367 20.136C115.695 18.824 115.359 17.288 115.359 15.528C115.359 14.2 115.551 13.008 115.935 11.952C116.319 10.88 116.863 9.968 117.567 9.216C118.287 8.448 119.143 7.864 120.135 7.464C121.143 7.048 122.263 6.84 123.495 6.84C125.143 6.84 126.575 7.2 127.791 7.92C129.007 8.624 129.951 9.624 130.623 10.92C131.295 12.216 131.631 13.744 131.631 15.504C131.631 16.832 131.439 18.032 131.055 19.104C130.671 20.176 130.119 21.096 129.399 21.864C128.695 22.632 127.839 23.224 126.831 23.64C125.839 24.04 124.727 24.24 123.495 24.24ZM123.495 21.6C124.535 21.6 125.415 21.36 126.135 20.88C126.871 20.4 127.431 19.704 127.815 18.792C128.215 17.88 128.415 16.792 128.415 15.528C128.415 13.608 127.983 12.12 127.119 11.064C126.271 10.008 125.063 9.48 123.495 9.48C122.471 9.48 121.591 9.72 120.855 10.2C120.119 10.664 119.551 11.352 119.151 12.264C118.767 13.16 118.575 14.248 118.575 15.528C118.575 17.432 119.007 18.92 119.871 19.992C120.735 21.064 121.943 21.6 123.495 21.6Z" fill="white"/>
</svg>
