<svg width="1600" height="1713" viewBox="0 0 1600 1713" fill="none" xmlns="http://www.w3.org/2000/svg">
<mask id="mask0_106_1848" style="mask-type:alpha" maskUnits="userSpaceOnUse" x="0" y="0" width="1600" height="1713">
<rect width="1600" height="1713" fill="#FAF8F7"/>
</mask>
<g mask="url(#mask0_106_1848)">
<rect opacity="0.05" width="1600" height="1713" fill="#316AFF"/>
<path d="M1664.43 -31.3359L1491.93 1774.97" stroke="url(#paint0_linear_106_1848)"/>
<path d="M1769.43 -17.7968L1596.93 1788.51" stroke="url(#paint1_linear_106_1848)"/>
<path d="M1554.43 -31.3359L1381.92 1774.97" stroke="url(#paint2_linear_106_1848)"/>
<path d="M1440.68 -31.3359L1268.17 1774.97" stroke="url(#paint3_linear_106_1848)"/>
<path d="M1326.92 -31.3359L1154.42 1774.97" stroke="url(#paint4_linear_106_1848)"/>
<path d="M1213.17 -31.3359L1040.67 1774.97" stroke="url(#paint5_linear_106_1848)"/>
<path d="M1099.42 -31.3359L926.914 1774.97" stroke="url(#paint6_linear_106_1848)"/>
<path d="M985.666 -31.3359L813.162 1774.97" stroke="url(#paint7_linear_106_1848)"/>
<path d="M871.916 -31.3359L699.412 1774.97" stroke="url(#paint8_linear_106_1848)"/>
<path d="M758.16 -31.3359L585.656 1774.97" stroke="url(#paint9_linear_106_1848)"/>
<path d="M644.41 -31.3359L471.906 1774.97" stroke="url(#paint10_linear_106_1848)"/>
<path d="M530.658 -31.3359L358.154 1774.97" stroke="url(#paint11_linear_106_1848)"/>
<path d="M424.906 -31.3359L252.402 1774.97" stroke="url(#paint12_linear_106_1848)"/>
<path d="M303.15 -31.3359L130.646 1774.97" stroke="url(#paint13_linear_106_1848)"/>
<path d="M189.4 -31.3359L16.8965 1774.97" stroke="url(#paint14_linear_106_1848)"/>
<path d="M75.65 -31.3359L-96.8535 1774.97" stroke="url(#paint15_linear_106_1848)"/>
<path d="M-324.359 171.881H1813.18" stroke="url(#paint16_linear_106_1848)"/>
<path d="M-324.359 305.832H1813.18" stroke="url(#paint17_linear_106_1848)"/>
<path d="M-323.111 441.305H1814.43" stroke="url(#paint18_linear_106_1848)"/>
<path d="M-323.111 575.277H1814.43" stroke="url(#paint19_linear_106_1848)"/>
<path d="M-321.859 710.754H1815.68" stroke="url(#paint20_linear_106_1848)"/>
<path d="M-321.859 844.717H1815.68" stroke="url(#paint21_linear_106_1848)"/>
<path d="M-320.611 980.188H1816.93" stroke="url(#paint22_linear_106_1848)"/>
<path d="M-320.611 1114.16H1816.93" stroke="url(#paint23_linear_106_1848)"/>
<path d="M-319.361 1249.63H1818.18" stroke="url(#paint24_linear_106_1848)"/>
<path d="M-319.361 1383.6H1818.18" stroke="url(#paint25_linear_106_1848)"/>
<path d="M-318.111 1517.56H1819.43" stroke="url(#paint26_linear_106_1848)"/>
<path d="M-324.359 36.4043H1791.93" stroke="url(#paint27_linear_106_1848)"/>
<g filter="url(#filter0_d_106_1848)">
<g opacity="0.2">
<path fill-rule="evenodd" clip-rule="evenodd" d="M1171.72 154.209L1159.39 174.534C1168.67 198.602 1195.26 212.308 1220.01 207.842L1232.34 187.517L1195.86 181.026L1171.72 154.209Z" fill="#84A6FF"/>
<path fill-rule="evenodd" clip-rule="evenodd" d="M1220.11 141.062L1150.74 128.237L1155.71 133.676C1152 135.251 1150.35 137.961 1148.3 141.348C1145.82 140.89 1143.76 144.278 1145.01 146.768L1136.78 155.795C1137.47 156.174 1137.05 156.851 1137.05 156.851L1142.54 150.833L1138.43 157.608C1138.43 157.608 1138.43 157.608 1139.12 157.987L1143.64 150.534L1139.81 158.365L1140.5 158.744L1144.61 151.969L1141.19 159.122C1141.88 159.501 1142.29 158.823 1142.98 159.202L1147.08 147.904C1149.96 147.684 1152.02 144.297 1150.36 142.484C1152.42 139.096 1154.06 136.386 1156.67 135.111L1197.1 179.002L1266.47 191.826L1220.11 141.062Z" fill="#84A6FF"/>
</g>
<g opacity="0.5">
<path fill-rule="evenodd" clip-rule="evenodd" d="M1169.47 145.811L1157.14 166.135C1166.42 190.204 1193.01 203.909 1217.76 199.444L1230.09 179.119L1193.62 172.627L1169.47 145.811Z" fill="#316AFF"/>
<path fill-rule="evenodd" clip-rule="evenodd" d="M1217.87 132.663L1148.49 119.839L1153.46 125.278C1149.75 126.852 1148.1 129.562 1146.05 132.95C1143.57 132.492 1141.52 135.879 1142.76 138.37L1134.53 147.397C1135.22 147.775 1134.81 148.453 1134.81 148.453L1140.29 142.435L1136.18 149.21C1136.18 149.21 1136.18 149.21 1136.87 149.588L1141.39 142.136L1137.56 149.967L1138.25 150.345L1142.36 143.57L1138.94 150.724C1139.63 151.102 1140.04 150.425 1140.73 150.803L1144.83 139.505C1147.72 139.286 1149.77 135.898 1148.12 134.085C1150.17 130.698 1151.81 127.988 1154.43 126.712L1194.85 170.603L1264.22 183.428L1217.87 132.663Z" fill="#316AFF"/>
</g>
</g>
</g>
<defs>
<filter id="filter0_d_106_1848" x="1120.53" y="119.839" width="145.944" height="102.841" filterUnits="userSpaceOnUse" color-interpolation-filters="sRGB">
<feFlood flood-opacity="0" result="BackgroundImageFix"/>
<feColorMatrix in="SourceAlpha" type="matrix" values="0 0 0 0 0 0 0 0 0 0 0 0 0 0 0 0 0 0 127 0" result="hardAlpha"/>
<feOffset dx="-10" dy="10"/>
<feGaussianBlur stdDeviation="2"/>
<feComposite in2="hardAlpha" operator="out"/>
<feColorMatrix type="matrix" values="0 0 0 0 0.0352941 0 0 0 0 0.0705882 0 0 0 0 0.156863 0 0 0 0.08 0"/>
<feBlend mode="normal" in2="BackgroundImageFix" result="effect1_dropShadow_106_1848"/>
<feBlend mode="normal" in="SourceGraphic" in2="effect1_dropShadow_106_1848" result="shape"/>
</filter>
<linearGradient id="paint0_linear_106_1848" x1="1578.18" y1="-31.3359" x2="1578.18" y2="1774.97" gradientUnits="userSpaceOnUse">
<stop offset="0.15625" stop-color="#EEEEEE"/>
<stop offset="0.838542" stop-color="#EEEEEE"/>
</linearGradient>
<linearGradient id="paint1_linear_106_1848" x1="1683.18" y1="-17.7968" x2="1683.18" y2="1788.51" gradientUnits="userSpaceOnUse">
<stop offset="0.15625" stop-color="#EEEEEE"/>
<stop offset="0.838542" stop-color="#EEEEEE"/>
</linearGradient>
<linearGradient id="paint2_linear_106_1848" x1="1468.17" y1="-31.3359" x2="1468.17" y2="1774.97" gradientUnits="userSpaceOnUse">
<stop offset="0.15625" stop-color="#EEEEEE"/>
<stop offset="0.838542" stop-color="#EEEEEE"/>
</linearGradient>
<linearGradient id="paint3_linear_106_1848" x1="1354.42" y1="-31.3359" x2="1354.42" y2="1774.97" gradientUnits="userSpaceOnUse">
<stop offset="0.15625" stop-color="#EEEEEE"/>
<stop offset="0.838542" stop-color="#EEEEEE"/>
</linearGradient>
<linearGradient id="paint4_linear_106_1848" x1="1240.67" y1="-31.3359" x2="1240.67" y2="1774.97" gradientUnits="userSpaceOnUse">
<stop offset="0.15625" stop-color="#EEEEEE"/>
<stop offset="0.838542" stop-color="#EEEEEE"/>
</linearGradient>
<linearGradient id="paint5_linear_106_1848" x1="1126.92" y1="-31.3359" x2="1126.92" y2="1774.97" gradientUnits="userSpaceOnUse">
<stop offset="0.15625" stop-color="#EEEEEE"/>
<stop offset="0.838542" stop-color="#EEEEEE"/>
</linearGradient>
<linearGradient id="paint6_linear_106_1848" x1="1013.17" y1="-31.3359" x2="1013.17" y2="1774.97" gradientUnits="userSpaceOnUse">
<stop offset="0.15625" stop-color="#EEEEEE"/>
<stop offset="0.838542" stop-color="#EEEEEE"/>
</linearGradient>
<linearGradient id="paint7_linear_106_1848" x1="899.414" y1="-31.3359" x2="899.414" y2="1774.97" gradientUnits="userSpaceOnUse">
<stop offset="0.15625" stop-color="#EEEEEE"/>
<stop offset="0.838542" stop-color="#EEEEEE"/>
</linearGradient>
<linearGradient id="paint8_linear_106_1848" x1="785.664" y1="-31.3359" x2="785.664" y2="1774.97" gradientUnits="userSpaceOnUse">
<stop offset="0.15625" stop-color="#EEEEEE"/>
<stop offset="0.838542" stop-color="#EEEEEE"/>
</linearGradient>
<linearGradient id="paint9_linear_106_1848" x1="671.908" y1="-31.3359" x2="671.908" y2="1774.97" gradientUnits="userSpaceOnUse">
<stop offset="0.15625" stop-color="#EEEEEE"/>
<stop offset="0.838542" stop-color="#EEEEEE"/>
</linearGradient>
<linearGradient id="paint10_linear_106_1848" x1="558.158" y1="-31.3359" x2="558.158" y2="1774.97" gradientUnits="userSpaceOnUse">
<stop offset="0.15625" stop-color="#EEEEEE"/>
<stop offset="0.838542" stop-color="#EEEEEE"/>
</linearGradient>
<linearGradient id="paint11_linear_106_1848" x1="444.406" y1="-31.3359" x2="444.406" y2="1774.97" gradientUnits="userSpaceOnUse">
<stop offset="0.15625" stop-color="#EEEEEE"/>
<stop offset="0.838542" stop-color="#EEEEEE"/>
</linearGradient>
<linearGradient id="paint12_linear_106_1848" x1="338.654" y1="-31.3359" x2="338.654" y2="1774.97" gradientUnits="userSpaceOnUse">
<stop offset="0.15625" stop-color="#EEEEEE"/>
<stop offset="0.838542" stop-color="#EEEEEE"/>
</linearGradient>
<linearGradient id="paint13_linear_106_1848" x1="216.898" y1="-31.3359" x2="216.898" y2="1774.97" gradientUnits="userSpaceOnUse">
<stop offset="0.15625" stop-color="#EEEEEE"/>
<stop offset="0.838542" stop-color="#EEEEEE"/>
</linearGradient>
<linearGradient id="paint14_linear_106_1848" x1="103.148" y1="-31.3359" x2="103.148" y2="1774.97" gradientUnits="userSpaceOnUse">
<stop offset="0.15625" stop-color="#EEEEEE"/>
<stop offset="0.838542" stop-color="#EEEEEE"/>
</linearGradient>
<linearGradient id="paint15_linear_106_1848" x1="-10.6018" y1="-31.3359" x2="-10.6018" y2="1774.97" gradientUnits="userSpaceOnUse">
<stop offset="0.15625" stop-color="#EEEEEE"/>
<stop offset="0.838542" stop-color="#EEEEEE"/>
</linearGradient>
<linearGradient id="paint16_linear_106_1848" x1="744.412" y1="171.881" x2="744.412" y2="172.881" gradientUnits="userSpaceOnUse">
<stop offset="0.15625" stop-color="#EEEEEE"/>
<stop offset="0.838542" stop-color="#EEEEEE"/>
</linearGradient>
<linearGradient id="paint17_linear_106_1848" x1="744.412" y1="305.832" x2="744.412" y2="306.832" gradientUnits="userSpaceOnUse">
<stop offset="0.15625" stop-color="#EEEEEE"/>
<stop offset="0.838542" stop-color="#EEEEEE"/>
</linearGradient>
<linearGradient id="paint18_linear_106_1848" x1="745.66" y1="441.305" x2="745.66" y2="442.305" gradientUnits="userSpaceOnUse">
<stop offset="0.15625" stop-color="#EEEEEE"/>
<stop offset="0.838542" stop-color="#EEEEEE"/>
</linearGradient>
<linearGradient id="paint19_linear_106_1848" x1="745.66" y1="575.277" x2="745.66" y2="576.277" gradientUnits="userSpaceOnUse">
<stop offset="0.15625" stop-color="#EEEEEE"/>
<stop offset="0.838542" stop-color="#EEEEEE"/>
</linearGradient>
<linearGradient id="paint20_linear_106_1848" x1="746.912" y1="710.754" x2="746.912" y2="711.754" gradientUnits="userSpaceOnUse">
<stop offset="0.15625" stop-color="#EEEEEE"/>
<stop offset="0.838542" stop-color="#EEEEEE"/>
</linearGradient>
<linearGradient id="paint21_linear_106_1848" x1="746.912" y1="844.717" x2="746.912" y2="845.717" gradientUnits="userSpaceOnUse">
<stop offset="0.15625" stop-color="#EEEEEE"/>
<stop offset="0.838542" stop-color="#EEEEEE"/>
</linearGradient>
<linearGradient id="paint22_linear_106_1848" x1="748.16" y1="980.188" x2="748.16" y2="981.188" gradientUnits="userSpaceOnUse">
<stop offset="0.15625" stop-color="#EEEEEE"/>
<stop offset="0.838542" stop-color="#EEEEEE"/>
</linearGradient>
<linearGradient id="paint23_linear_106_1848" x1="748.16" y1="1114.16" x2="748.16" y2="1115.16" gradientUnits="userSpaceOnUse">
<stop offset="0.15625" stop-color="#EEEEEE"/>
<stop offset="0.838542" stop-color="#EEEEEE"/>
</linearGradient>
<linearGradient id="paint24_linear_106_1848" x1="749.41" y1="1249.63" x2="749.41" y2="1250.63" gradientUnits="userSpaceOnUse">
<stop offset="0.15625" stop-color="#EEEEEE"/>
<stop offset="0.838542" stop-color="#EEEEEE"/>
</linearGradient>
<linearGradient id="paint25_linear_106_1848" x1="749.41" y1="1383.6" x2="749.41" y2="1384.6" gradientUnits="userSpaceOnUse">
<stop offset="0.15625" stop-color="#EEEEEE"/>
<stop offset="0.838542" stop-color="#EEEEEE"/>
</linearGradient>
<linearGradient id="paint26_linear_106_1848" x1="750.66" y1="1517.56" x2="750.66" y2="1518.56" gradientUnits="userSpaceOnUse">
<stop offset="0.15625" stop-color="#EEEEEE"/>
<stop offset="0.838542" stop-color="#EEEEEE"/>
</linearGradient>
<linearGradient id="paint27_linear_106_1848" x1="733.787" y1="36.4043" x2="733.787" y2="37.4043" gradientUnits="userSpaceOnUse">
<stop offset="0.15625" stop-color="#EEEEEE"/>
<stop offset="0.838542" stop-color="#EEEEEE"/>
</linearGradient>
</defs>
</svg>
