<svg width="16" height="16" viewBox="0 0 16 16" fill="none" xmlns="http://www.w3.org/2000/svg">
<path d="M3.31975 4.79844C4.12535 4.79844 4.77842 4.14537 4.77842 3.33977C4.77842 2.53417 4.12535 1.8811 3.31975 1.8811C2.51415 1.8811 1.86108 2.53417 1.86108 3.33977C1.86108 4.14537 2.51415 4.79844 3.31975 4.79844Z" fill="white"/>
<path d="M6.15717 5.90312V13.9958H8.66983V9.99379C8.66983 8.93779 8.8685 7.91512 10.1778 7.91512C11.4692 7.91512 11.4852 9.12246 11.4852 10.0605V13.9965H13.9992V9.55846C13.9992 7.37846 13.5298 5.70312 10.9818 5.70312C9.7585 5.70312 8.9385 6.37446 8.60317 7.00979H8.56917V5.90312H6.15717ZM2.0625 5.90312H4.57917V13.9958H2.0625V5.90312Z" fill="white"/>
</svg>
