<svg width="16" height="16" viewBox="0 0 16 16" fill="none" xmlns="http://www.w3.org/2000/svg">
<path d="M5.99998 14.6667H9.99998C13.3333 14.6667 14.6666 13.3333 14.6666 10V6.00001C14.6666 2.66668 13.3333 1.33334 9.99998 1.33334H5.99998C2.66665 1.33334 1.33331 2.66668 1.33331 6.00001V10C1.33331 13.3333 2.66665 14.6667 5.99998 14.6667Z" stroke="white" stroke-width="1.5" stroke-linecap="round" stroke-linejoin="round"/>
<path d="M12.2534 10.18V5.05334C12.2534 4.54 11.84 4.16668 11.3334 4.20668H11.3067C10.4134 4.28001 9.06005 4.74002 8.30005 5.21335L8.22672 5.26002C8.10672 5.33335 7.90002 5.33335 7.77336 5.26002L7.66671 5.19335C6.91337 4.72002 5.56004 4.27334 4.66671 4.2C4.16004 4.16 3.7467 4.54002 3.7467 5.04668V10.18C3.7467 10.5867 4.08003 10.9733 4.48669 11.02L4.60669 11.04C5.52669 11.16 6.95339 11.6333 7.76672 12.08L7.7867 12.0867C7.90004 12.1533 8.08669 12.1533 8.19336 12.0867C9.00669 11.6333 10.44 11.1667 11.3667 11.04L11.5067 11.02C11.92 10.9733 12.2534 10.5933 12.2534 10.18Z" stroke="white" stroke-width="1.5" stroke-linecap="round" stroke-linejoin="round"/>
<path d="M8 5.39999V11.7733" stroke="white" stroke-width="1.5" stroke-linecap="round" stroke-linejoin="round"/>
</svg>
