<svg width="14" height="14" viewBox="0 0 14 14" fill="none" xmlns="http://www.w3.org/2000/svg">
<path d="M2.91669 5.83332H4.08335C5.25002 5.83332 5.83335 5.24999 5.83335 4.08332V2.91666C5.83335 1.74999 5.25002 1.16666 4.08335 1.16666H2.91669C1.75002 1.16666 1.16669 1.74999 1.16669 2.91666V4.08332C1.16669 5.24999 1.75002 5.83332 2.91669 5.83332Z" stroke="white" stroke-width="1.5" stroke-miterlimit="10" stroke-linecap="round" stroke-linejoin="round"/>
<path d="M9.91669 5.83332H11.0834C12.25 5.83332 12.8334 5.24999 12.8334 4.08332V2.91666C12.8334 1.74999 12.25 1.16666 11.0834 1.16666H9.91669C8.75002 1.16666 8.16669 1.74999 8.16669 2.91666V4.08332C8.16669 5.24999 8.75002 5.83332 9.91669 5.83332Z" stroke="white" stroke-width="1.5" stroke-miterlimit="10" stroke-linecap="round" stroke-linejoin="round"/>
<path d="M9.91669 12.8333H11.0834C12.25 12.8333 12.8334 12.25 12.8334 11.0833V9.91666C12.8334 8.74999 12.25 8.16666 11.0834 8.16666H9.91669C8.75002 8.16666 8.16669 8.74999 8.16669 9.91666V11.0833C8.16669 12.25 8.75002 12.8333 9.91669 12.8333Z" stroke="white" stroke-width="1.5" stroke-miterlimit="10" stroke-linecap="round" stroke-linejoin="round"/>
<path d="M2.91669 12.8333H4.08335C5.25002 12.8333 5.83335 12.25 5.83335 11.0833V9.91666C5.83335 8.74999 5.25002 8.16666 4.08335 8.16666H2.91669C1.75002 8.16666 1.16669 8.74999 1.16669 9.91666V11.0833C1.16669 12.25 1.75002 12.8333 2.91669 12.8333Z" stroke="white" stroke-width="1.5" stroke-miterlimit="10" stroke-linecap="round" stroke-linejoin="round"/>
</svg>
