<svg width="125" height="30" viewBox="0 0 125 30" fill="none" xmlns="http://www.w3.org/2000/svg">
<path d="M24.5169 10.9441C24.5169 5.81916 21.1587 4.31644 21.1587 4.31644C19.4662 3.53934 16.5586 3.21281 13.5388 3.1875H13.4646C10.4439 3.21281 7.53892 3.53934 5.84551 4.31644C5.84551 4.31644 2.48739 5.81831 2.48739 10.9441C2.48739 12.1177 2.4646 13.5209 2.50173 15.0084C2.62407 20.0203 3.42142 24.9605 8.05445 26.1864C10.1908 26.7517 12.026 26.8699 13.5034 26.7897C16.1823 26.6412 17.6867 25.8337 17.6867 25.8337L17.5981 23.8897C17.5981 23.8897 15.6828 24.493 13.5329 24.4196C11.4024 24.3462 9.15385 24.1901 8.8096 21.5745C8.77673 21.3312 8.76066 21.0859 8.76151 20.8404C8.76151 20.8404 10.8532 21.3526 13.5034 21.4732C15.1234 21.5475 16.6438 21.3787 18.187 21.1948C21.1469 20.8404 23.7246 19.0171 24.0486 17.3507C24.559 14.7249 24.5169 10.9441 24.5169 10.9441ZM20.5563 17.5473H18.0976V11.5237C18.0976 10.2539 17.5635 9.61012 16.4945 9.61012C15.3132 9.61012 14.7209 10.3746 14.7209 11.8857V15.1831H12.2774V11.8857C12.2774 10.3746 11.6851 9.61012 10.5039 9.61012C9.43482 9.61012 8.90073 10.2539 8.90073 11.5237V17.5473H6.44204V11.3415C6.44204 10.0733 6.7652 9.06506 7.41404 8.32003C8.08229 7.57416 8.9581 7.19194 10.0465 7.19194C11.3037 7.19194 12.2572 7.67541 12.8866 8.64319L13.4992 9.66834L14.1117 8.6415C14.7412 7.67456 15.6946 7.19109 16.9526 7.19109C18.0394 7.19109 18.9152 7.57331 19.5851 8.31919C20.2331 9.06422 20.5554 10.0725 20.5554 11.3407V17.5464L20.5563 17.5473Z" fill="white"/>
<path d="M40.014 22.176C39.6033 22.176 39.288 22.0587 39.068 21.824C38.848 21.5893 38.738 21.2667 38.738 20.856V7.634C38.738 7.20867 38.8553 6.886 39.09 6.666C39.3247 6.43133 39.6473 6.314 40.058 6.314C40.4247 6.314 40.7107 6.38733 40.916 6.534C41.136 6.666 41.334 6.90067 41.51 7.238L46.944 17.292H46.24L51.674 7.238C51.85 6.90067 52.0407 6.666 52.246 6.534C52.4513 6.38733 52.7373 6.314 53.104 6.314C53.5147 6.314 53.83 6.43133 54.05 6.666C54.27 6.886 54.38 7.20867 54.38 7.634V20.856C54.38 21.2667 54.27 21.5893 54.05 21.824C53.8447 22.0587 53.5293 22.176 53.104 22.176C52.6933 22.176 52.378 22.0587 52.158 21.824C51.938 21.5893 51.828 21.2667 51.828 20.856V10.67H52.312L47.692 19.096C47.5453 19.3453 47.3913 19.5287 47.23 19.646C47.0687 19.7633 46.8487 19.822 46.57 19.822C46.2913 19.822 46.064 19.7633 45.888 19.646C45.712 19.514 45.558 19.3307 45.426 19.096L40.762 10.648H41.29V20.856C41.29 21.2667 41.18 21.5893 40.96 21.824C40.7547 22.0587 40.4393 22.176 40.014 22.176ZM61.0716 22.22C60.2943 22.22 59.5976 22.0733 58.9816 21.78C58.3803 21.472 57.9036 21.0613 57.5516 20.548C57.2143 20.0347 57.0456 19.4553 57.0456 18.81C57.0456 18.018 57.2509 17.3947 57.6616 16.94C58.0723 16.4707 58.7396 16.1333 59.6636 15.928C60.5876 15.7227 61.8269 15.62 63.3816 15.62H64.4816V17.204H63.4036C62.4943 17.204 61.7683 17.248 61.2256 17.336C60.6829 17.424 60.2943 17.578 60.0596 17.798C59.8396 18.0033 59.7296 18.2967 59.7296 18.678C59.7296 19.162 59.8983 19.558 60.2356 19.866C60.5729 20.174 61.0423 20.328 61.6436 20.328C62.1276 20.328 62.5529 20.218 62.9196 19.998C63.3009 19.7633 63.6016 19.448 63.8216 19.052C64.0416 18.656 64.1516 18.2013 64.1516 17.688V15.158C64.1516 14.4247 63.9903 13.8967 63.6676 13.574C63.3449 13.2513 62.8023 13.09 62.0396 13.09C61.6143 13.09 61.1523 13.1413 60.6536 13.244C60.1696 13.3467 59.6563 13.5227 59.1136 13.772C58.8349 13.904 58.5856 13.9407 58.3656 13.882C58.1603 13.8233 57.9989 13.706 57.8816 13.53C57.7643 13.3393 57.7056 13.134 57.7056 12.914C57.7056 12.694 57.7643 12.4813 57.8816 12.276C57.9989 12.056 58.1969 11.8947 58.4756 11.792C59.1503 11.5133 59.7956 11.3153 60.4116 11.198C61.0423 11.0807 61.6143 11.022 62.1276 11.022C63.1836 11.022 64.0489 11.1833 64.7236 11.506C65.4129 11.8287 65.9263 12.32 66.2636 12.98C66.6009 13.6253 66.7696 14.4613 66.7696 15.488V20.768C66.7696 21.2227 66.6596 21.5747 66.4396 21.824C66.2196 22.0587 65.9043 22.176 65.4936 22.176C65.0829 22.176 64.7603 22.0587 64.5256 21.824C64.3056 21.5747 64.1956 21.2227 64.1956 20.768V19.712H64.3716C64.2689 20.2253 64.0636 20.6727 63.7556 21.054C63.4623 21.4207 63.0883 21.7067 62.6336 21.912C62.1789 22.1173 61.6583 22.22 61.0716 22.22ZM73.4989 22.22C72.8682 22.22 72.2009 22.154 71.4969 22.022C70.7929 21.89 70.1622 21.6627 69.6049 21.34C69.3702 21.1933 69.2015 21.0247 69.0989 20.834C69.0109 20.6287 68.9742 20.4307 68.9889 20.24C69.0182 20.0347 69.0915 19.8587 69.2089 19.712C69.3409 19.5653 69.5022 19.47 69.6929 19.426C69.8982 19.382 70.1182 19.4187 70.3529 19.536C70.9395 19.8147 71.4895 20.0127 72.0029 20.13C72.5162 20.2327 73.0222 20.284 73.5209 20.284C74.2249 20.284 74.7455 20.1667 75.0829 19.932C75.4349 19.6827 75.6109 19.36 75.6109 18.964C75.6109 18.6267 75.4935 18.37 75.2589 18.194C75.0389 18.0033 74.7015 17.864 74.2469 17.776L72.0469 17.358C71.1375 17.182 70.4409 16.852 69.9569 16.368C69.4875 15.8693 69.2529 15.2313 69.2529 14.454C69.2529 13.75 69.4435 13.1413 69.8249 12.628C70.2209 12.1147 70.7635 11.7187 71.4529 11.44C72.1422 11.1613 72.9342 11.022 73.8289 11.022C74.4742 11.022 75.0755 11.0953 75.6329 11.242C76.2049 11.374 76.7549 11.5867 77.2829 11.88C77.5029 11.9973 77.6495 12.1513 77.7229 12.342C77.8109 12.5327 77.8329 12.7307 77.7889 12.936C77.7449 13.1267 77.6569 13.3027 77.5249 13.464C77.3929 13.6107 77.2242 13.706 77.0189 13.75C76.8282 13.7793 76.6082 13.7353 76.3589 13.618C75.9042 13.3833 75.4642 13.2147 75.0389 13.112C74.6282 13.0093 74.2322 12.958 73.8509 12.958C73.1322 12.958 72.5969 13.0827 72.2449 13.332C71.9075 13.5813 71.7389 13.9113 71.7389 14.322C71.7389 14.63 71.8415 14.8867 72.0469 15.092C72.2522 15.2973 72.5675 15.4367 72.9929 15.51L75.1929 15.928C76.1462 16.104 76.8649 16.4267 77.3489 16.896C77.8475 17.3653 78.0969 17.996 78.0969 18.788C78.0969 19.8587 77.6789 20.702 76.8429 21.318C76.0069 21.9193 74.8922 22.22 73.4989 22.22ZM85.1236 22.22C84.1703 22.22 83.371 22.0587 82.7256 21.736C82.095 21.4133 81.6256 20.944 81.3176 20.328C81.0096 19.6973 80.8556 18.92 80.8556 17.996V13.31H79.7116C79.3596 13.31 79.0883 13.222 78.8976 13.046C78.707 12.8553 78.6116 12.5987 78.6116 12.276C78.6116 11.9387 78.707 11.682 78.8976 11.506C79.0883 11.33 79.3596 11.242 79.7116 11.242H80.8556V9.24C80.8556 8.78533 80.973 8.44067 81.2076 8.206C81.457 7.97133 81.8016 7.854 82.2416 7.854C82.6816 7.854 83.019 7.97133 83.2536 8.206C83.4883 8.44067 83.6056 8.78533 83.6056 9.24V11.242H85.9376C86.2896 11.242 86.561 11.33 86.7516 11.506C86.9423 11.682 87.0376 11.9387 87.0376 12.276C87.0376 12.5987 86.9423 12.8553 86.7516 13.046C86.561 13.222 86.2896 13.31 85.9376 13.31H83.6056V17.842C83.6056 18.546 83.7596 19.074 84.0676 19.426C84.3756 19.778 84.8743 19.954 85.5636 19.954C85.813 19.954 86.033 19.932 86.2236 19.888C86.4143 19.844 86.583 19.8147 86.7296 19.8C86.9056 19.7853 87.0523 19.844 87.1696 19.976C87.287 20.0933 87.3456 20.3427 87.3456 20.724C87.3456 21.0173 87.2943 21.2813 87.1916 21.516C87.1036 21.736 86.935 21.89 86.6856 21.978C86.495 22.0367 86.2456 22.088 85.9376 22.132C85.6296 22.1907 85.3583 22.22 85.1236 22.22ZM93.8336 22.22C92.6162 22.22 91.5676 21.9927 90.6876 21.538C89.8076 21.0833 89.1256 20.438 88.6416 19.602C88.1722 18.766 87.9376 17.776 87.9376 16.632C87.9376 15.5173 88.1649 14.542 88.6196 13.706C89.0889 12.87 89.7269 12.2173 90.5336 11.748C91.3549 11.264 92.2862 11.022 93.3276 11.022C94.0902 11.022 94.7722 11.1467 95.3736 11.396C95.9896 11.6453 96.5102 12.0047 96.9356 12.474C97.3756 12.9433 97.7056 13.5153 97.9256 14.19C98.1602 14.85 98.2776 15.598 98.2776 16.434C98.2776 16.698 98.1822 16.9033 97.9916 17.05C97.8156 17.182 97.5589 17.248 97.2216 17.248H90.1596V15.664H96.3416L95.9896 15.994C95.9896 15.3193 95.8869 14.7547 95.6816 14.3C95.4909 13.8453 95.2049 13.5007 94.8236 13.266C94.4569 13.0167 93.9949 12.892 93.4376 12.892C92.8216 12.892 92.2936 13.0387 91.8536 13.332C91.4282 13.6107 91.0982 14.014 90.8636 14.542C90.6436 15.0553 90.5336 15.6713 90.5336 16.39V16.544C90.5336 17.7467 90.8122 18.6487 91.3696 19.25C91.9416 19.8367 92.7776 20.13 93.8776 20.13C94.2589 20.13 94.6842 20.086 95.1536 19.998C95.6376 19.8953 96.0922 19.7267 96.5176 19.492C96.8256 19.316 97.0969 19.2427 97.3316 19.272C97.5662 19.2867 97.7496 19.3673 97.8816 19.514C98.0282 19.6607 98.1162 19.844 98.1456 20.064C98.1749 20.2693 98.1309 20.482 98.0136 20.702C97.9109 20.922 97.7276 21.1127 97.4636 21.274C96.9502 21.5967 96.3562 21.8387 95.6816 22C95.0216 22.1467 94.4056 22.22 93.8336 22.22ZM101.863 22.176C101.409 22.176 101.057 22.0587 100.807 21.824C100.573 21.5747 100.455 21.2227 100.455 20.768V12.452C100.455 11.9973 100.573 11.6527 100.807 11.418C101.042 11.1833 101.372 11.066 101.797 11.066C102.223 11.066 102.553 11.1833 102.787 11.418C103.022 11.6527 103.139 11.9973 103.139 12.452V13.838H102.919C103.125 12.958 103.528 12.2907 104.129 11.836C104.731 11.3813 105.53 11.11 106.527 11.022C106.835 10.9927 107.077 11.0733 107.253 11.264C107.444 11.44 107.554 11.7187 107.583 12.1C107.613 12.4667 107.525 12.7673 107.319 13.002C107.129 13.222 106.835 13.354 106.439 13.398L105.955 13.442C105.061 13.53 104.386 13.8087 103.931 14.278C103.477 14.7327 103.249 15.378 103.249 16.214V20.768C103.249 21.2227 103.132 21.5747 102.897 21.824C102.663 22.0587 102.318 22.176 101.863 22.176ZM122.227 24.486C122.432 24.8087 122.513 25.102 122.469 25.366C122.425 25.63 122.307 25.85 122.117 26.026C121.926 26.2167 121.691 26.334 121.413 26.378C121.134 26.4367 120.855 26.4073 120.577 26.29C120.298 26.1873 120.063 25.982 119.873 25.674L118.355 23.232C118.149 22.8947 117.871 22.638 117.519 22.462C117.181 22.3007 116.763 22.22 116.265 22.22L118.443 21.362C119.132 21.362 119.682 21.4867 120.093 21.736C120.503 21.9707 120.899 22.3887 121.281 22.99L122.227 24.486ZM116.287 22.22C114.791 22.22 113.478 21.89 112.349 21.23C111.234 20.57 110.369 19.646 109.753 18.458C109.137 17.2553 108.829 15.8473 108.829 14.234C108.829 13.0167 109.005 11.924 109.357 10.956C109.709 9.97333 110.207 9.13733 110.853 8.448C111.513 7.744 112.297 7.20867 113.207 6.842C114.131 6.46067 115.157 6.27 116.287 6.27C117.797 6.27 119.11 6.6 120.225 7.26C121.339 7.90533 122.205 8.822 122.821 10.01C123.437 11.198 123.745 12.5987 123.745 14.212C123.745 15.4293 123.569 16.5293 123.217 17.512C122.865 18.4947 122.359 19.338 121.699 20.042C121.053 20.746 120.269 21.2887 119.345 21.67C118.435 22.0367 117.416 22.22 116.287 22.22ZM116.287 19.8C117.24 19.8 118.047 19.58 118.707 19.14C119.381 18.7 119.895 18.062 120.247 17.226C120.613 16.39 120.797 15.3927 120.797 14.234C120.797 12.474 120.401 11.11 119.609 10.142C118.831 9.174 117.724 8.69 116.287 8.69C115.348 8.69 114.541 8.91 113.867 9.35C113.192 9.77533 112.671 10.406 112.305 11.242C111.953 12.0633 111.777 13.0607 111.777 14.234C111.777 15.9793 112.173 17.3433 112.965 18.326C113.757 19.3087 114.864 19.8 116.287 19.8Z" fill="white"/>
</svg>
