<svg width="16" height="16" viewBox="0 0 16 16" fill="none" xmlns="http://www.w3.org/2000/svg">
<path d="M8 10C9.10457 10 10 9.10457 10 8C10 6.89543 9.10457 6 8 6C6.89543 6 6 6.89543 6 8C6 9.10457 6.89543 10 8 10Z" stroke="white" stroke-width="1.5" stroke-miterlimit="10" stroke-linecap="round" stroke-linejoin="round"/>
<path d="M1.33331 8.58666V7.41332C1.33331 6.71999 1.89998 6.14666 2.59998 6.14666C3.80665 6.14666 4.29998 5.29332 3.69331 4.24666C3.34665 3.64666 3.55331 2.86666 4.15998 2.51999L5.31331 1.85999C5.83998 1.54666 6.51998 1.73332 6.83331 2.25999L6.90665 2.38666C7.50665 3.43332 8.49331 3.43332 9.09998 2.38666L9.17331 2.25999C9.48665 1.73332 10.1666 1.54666 10.6933 1.85999L11.8466 2.51999C12.4533 2.86666 12.66 3.64666 12.3133 4.24666C11.7066 5.29332 12.2 6.14666 13.4066 6.14666C14.1 6.14666 14.6733 6.71332 14.6733 7.41332V8.58666C14.6733 9.27999 14.1066 9.85332 13.4066 9.85332C12.2 9.85332 11.7066 10.7067 12.3133 11.7533C12.66 12.36 12.4533 13.1333 11.8466 13.48L10.6933 14.14C10.1666 14.4533 9.48665 14.2667 9.17331 13.74L9.09998 13.6133C8.49998 12.5667 7.51331 12.5667 6.90665 13.6133L6.83331 13.74C6.51998 14.2667 5.83998 14.4533 5.31331 14.14L4.15998 13.48C3.55331 13.1333 3.34665 12.3533 3.69331 11.7533C4.29998 10.7067 3.80665 9.85332 2.59998 9.85332C1.89998 9.85332 1.33331 9.27999 1.33331 8.58666Z" stroke="white" stroke-width="1.5" stroke-miterlimit="10" stroke-linecap="round" stroke-linejoin="round"/>
</svg>
